
<svg id='gauge-outer' width="87px" height="109px" viewBox="0 0 87 109" version="1.1" xmlns="http://www.w3.org/2000/svg" xmlns:xlink="http://www.w3.org/1999/xlink">
    <g id="Page-1" stroke="none" stroke-width="1" fill="none" fill-rule="evenodd">
        <g id="Desktop-HD" transform="translate(-1162.000000, -282.000000)" fill="#93C83F">
            <g id="gauge" transform="translate(1119.000000, 262.000000)">
                <path d="M86.5,129 C110.524387,129 130,109.524387 130,85.5 C130,61.4756134 110.524387,42 86.5,42 C62.4756134,42 43,61.4756134 43,85.5 C43,109.524387 62.4756134,129 86.5,129 Z" id="Oval-3"></path>
                <path d="M85.489817,20.9847758 C85.9753725,19.9932976 86.7653477,19.9988802 87.2481692,20.9847758 L101.524072,50.1353988 C102.009628,51.1268771 101.512083,51.930629 100.397219,51.930629 L72.340767,51.930629 C71.2328678,51.930629 70.7310926,51.1212944 71.2139142,50.1353988 L85.489817,20.9847758 Z" id="caret-copy-2" transform="translate(86.370094, 36.086944) scale(-1, 1) translate(-86.370094, -36.086944) "></path>
            </g>
        </g>
    </g>
</svg>
