<svg width="173px" height="172px" viewBox="0 0 173 172" version="1.1" xmlns="http://www.w3.org/2000/svg" xmlns:xlink="http://www.w3.org/1999/xlink">
    <!-- Generator: Sketch 51 (57462) - http://www.bohemiancoding.com/sketch -->
    <desc>Created with Sketch.</desc>
    <defs>
        <path d="M85.6573705,0 C116.256087,0 144.534916,16.2925 159.834274,42.75 C175.133632,69.2075 175.133632,101.7925 159.834274,128.25 C144.534916,154.7075 116.256087,171 85.6573705,171 C55.0586543,171 26.7798251,154.7075 11.480467,128.25 C-3.8188911,101.7925 -3.8188911,69.2075 11.480467,42.75 C26.7798251,16.2925 55.0586543,0 85.6573705,0 L85.6573705,19 C61.8517596,19 39.854471,31.670625 27.957614,52.25 C16.060757,72.829375 16.060757,98.170625 27.957614,118.75 C39.854471,139.329375 61.8517596,152 85.6573705,152 C109.462981,152 131.46027,139.329375 143.357127,118.75 C155.253984,98.170625 155.253984,72.829375 143.357127,52.25 C131.46027,31.670625 109.462981,19 85.6573705,19 L85.6573705,0 L85.6573705,0 Z" id="path-1"></path>
        <path d="M1.13078436,14.4515781 C0.846782592,14.1799138 0.574641988,13.9082731 0.30247759,13.6247931 L0.29956286,13.8331519 L13.850083,0.485651875 L13.6404723,0.484963125 L14.2947994,1.13808813 L14.2941094,0.9288625 L0.922042109,14.4544875 L1.13078436,14.4515781 L1.13078436,14.4515781 Z" id="path-3"></path>
        <path d="M1.00639767,13.1691912 C0.902629409,13.0409575 0.819049096,12.9391673 0.632306054,12.7128288 C0.445227977,12.4860756 0.362152224,12.3848888 0.258447322,12.2567338 L0.236533311,12.4652113 L15.0115926,0.48401508 C15.0113676,0.483734823 15.0111426,0.483454566 15.0109176,0.483174309 L14.8040965,0.46102427 L14.8032305,0.461726523 C15.0887236,0.81793027 15.2182154,0.977008864 15.3874792,1.17580221 L15.3884505,1.17499215 L15.4061781,0.967565219 C15.4060473,0.96740894 15.4059166,0.967252678 15.4057858,0.967096416 L0.798559578,13.1490832 C0.799013688,13.1496397 0.799467799,13.1501962 0.79992191,13.1507528 L1.00450275,13.1707715 L1.00639768,13.1691912 L1.00639767,13.1691912 L1.00639767,13.1691912 Z" id="path-5"></path>
        <path d="M0.892264276,13.264375 C0.642430279,12.955625 0.392596282,12.65875 0.142762284,12.35 L14.9186587,0.368125 C15.1090084,0.605625 15.2993581,0.843125 15.5016047,1.080625 L0.892264276,13.264375 L0.892264276,13.264375 Z" id="path-7"></path>
        <path d="M0.812755097,11.3755657 C0.742151848,11.2717167 0.505441055,10.9270486 0.475315128,10.8829388 C0.343914343,10.6905875 0.243754703,10.5407844 0.148889166,10.3934869 L0.106048583,10.5974163 L15.9622153,0.0895943806 C15.9617102,0.0888043704 15.961205,0.0880143428 15.9606999,0.0872242982 L15.7607873,0.044903768 L15.7583868,0.0464945355 C16.0075997,0.437379328 16.1215101,0.61092046 16.2711052,0.820077261 L16.2735888,0.818381384 L16.3094572,0.616236731 C16.3091129,0.615739154 16.3087686,0.615241538 16.3084244,0.614743883 L0.606298098,11.336691 C0.606354881,11.336774 0.606411664,11.3368569 0.606468447,11.3369398 L0.812296777,11.3758787 L0.812755097,11.3755657 L0.812755097,11.3755657 L0.812755097,11.3755657 Z" id="path-9"></path>
        <path d="M0.690380947,9.28764616 C0.769449283,9.43070043 0.833076881,9.54730844 0.975398323,9.809225 C0.9756779,9.8097475 0.9756779,9.8097475 0.975957476,9.81025813 C1.11790007,10.0714844 1.18144118,10.1879306 1.26040895,10.3307988 L1.05866102,10.2725588 C1.05863395,10.2725095 1.05860688,10.2724601 1.05857981,10.2724108 L17.7251631,1.1054112 C17.7253046,1.10566678 17.7254461,1.10592235 17.7255876,1.10617792 L17.6688548,1.30586671 L17.6674437,1.30664288 C17.5379905,1.07798644 17.4403298,0.894951753 17.2262944,0.485474244 L17.2274788,0.48484375 L17.4257441,0.546066618 C17.4259448,0.546449746 17.4261455,0.546832874 17.4263462,0.547216002 L0.63078074,9.4876017 C0.630479995,9.48705348 0.630179249,9.48650529 0.629878503,9.48595712 L0.688515773,9.28863899 L0.690380942,9.28764615 L0.690380947,9.28764616 L0.690380947,9.28764616 Z" id="path-11"></path>
        <path d="M1.13020142,10.4025 C0.939851704,10.058125 0.749501992,9.701875 0.55915228,9.3575 L17.3575144,0.415625 C17.5002767,0.68875 17.643039,0.961875 17.7976981,1.235 L1.13020142,10.4025 L1.13020142,10.4025 Z" id="path-13"></path>
        <path d="M1.20691613,8.90598186 C1.09186175,8.63212547 1.09154814,8.63137901 0.975868249,8.35603375 C0.859986545,8.08020814 0.859874003,8.07994026 0.744217166,7.80464988 L0.743566689,7.80460532 L0.66402404,7.99760013 C0.664099097,7.99777879 0.664174154,7.99795744 0.66424921,7.99813609 L18.2472684,0.71898375 L18.0530284,0.63897 C18.1027811,0.75817125 18.1426118,0.852090625 18.2319096,1.06155375 C18.3210646,1.27068438 18.3605503,1.36379625 18.4099342,1.482095 L18.4881917,1.28874625 L1.01320287,8.82872759 C1.01341238,8.82922626 1.01362188,8.82972493 1.01383139,8.8302236 L1.2057353,8.90736835 L1.20722804,8.90672427 L1.20691613,8.90598186 L1.20691613,8.90598186 Z" id="path-15"></path>
        <path d="M1.07071713,8.965625 C0.91605799,8.5975 0.761398849,8.229375 0.606739708,7.86125 L18.1902944,0.581875 C18.3092629,0.866875 18.4282315,1.14 18.5472001,1.425 L1.07071713,8.965625 L1.07071713,8.965625 Z" id="path-17"></path>
        <path d="M0.688598145,7.16194275 C0.599969948,6.87885357 0.599770389,6.87821615 0.510743969,6.593855 C0.421637508,6.30923819 0.421517702,6.30885552 0.332650533,6.02500303 L0.331761936,6.02485671 L0.234465169,6.20903511 C0.234545652,6.20929218 0.234626134,6.20954925 0.234706616,6.20980631 L18.4361191,0.640668125 L18.2509089,0.54399375 C18.2903113,0.6669 18.3204222,0.76396625 18.3871636,0.981575625 C18.4542618,1.2003725 18.4846226,1.29825813 18.5245366,1.42274375 L18.6205442,1.23622313 L0.502896993,7.06643881 C0.503029873,7.06686324 0.503162753,7.06728768 0.503295633,7.06771212 L0.687520459,7.16298803 L0.688796809,7.1625773 L0.688598145,7.16194275 L0.688598145,7.16194275 Z" id="path-19"></path>
        <path d="M0.930488237,5.16960905 C0.89603592,5.00747034 0.869832075,4.87865632 0.812047338,4.59026937 C0.754067468,4.3008967 0.727705147,4.1713074 0.692963406,4.00779937 L0.691856533,4.00802499 L0.577583104,4.18205949 C0.577633274,4.1823015 0.57768344,4.18254351 0.577733604,4.18278552 L19.2185232,0.383108674 C19.2184668,0.382822571 19.2184104,0.382536482 19.218354,0.382250407 L19.0445237,0.267078071 L19.0439295,0.267199188 C19.0544096,0.319544337 19.1159298,0.631879638 19.1345717,0.72406625 C19.1708274,0.90326713 19.2022063,1.04834615 19.234655,1.18352235 L19.2376662,1.1828666 L19.3468813,1.00908211 C19.3467439,1.00846862 19.3466066,1.00785506 19.3464693,1.00724144 L0.754712448,5.05595515 C0.754796299,5.05635968 0.75488016,5.05676422 0.75496403,5.05716877 L0.92965054,5.16979148 L0.930488238,5.16960905 L0.930488237,5.16960905 L0.930488237,5.16960905 Z" id="path-21"></path>
        <path d="M0.623780052,2.34041075 C0.643597767,2.50372819 0.658042196,2.63652461 0.689212647,2.93432437 C0.720356358,3.23186437 0.734673512,3.36343937 0.754369829,3.52564 L0.589446076,3.3963914 C0.589433806,3.39628382 0.589421537,3.39617624 0.589409269,3.39606866 L19.4931906,1.1398575 L19.3631103,1.30426687 C19.3363424,1.07270437 19.3363424,1.07270437 19.3095745,0.841141875 C19.2828066,0.609579375 19.2828066,0.609579375 19.2560386,0.378016875 L19.4193944,0.508618125 L0.493205407,2.50343737 C0.493139923,2.50286315 0.493074421,2.50228895 0.493008899,2.50171477 L0.621501257,2.34065092 L0.62378005,2.34041074 L0.623780052,2.34041075 L0.623780052,2.34041075 Z" id="path-23"></path>
        <path d="M0.606739708,3.5435 C0.55915228,3.151625 0.523461709,2.747875 0.475874281,2.356 L19.4037738,0.361 C19.4394644,0.66975 19.4751549,0.9785 19.5108455,1.28725 L0.606739708,3.5435 L0.606739708,3.5435 Z" id="path-25"></path>
        <path d="M19.0350202,0.754073398 L0.00130116877,0.9203125 L0.148710713,0.771875 C0.148710713,1.09844938 0.155145366,1.38532563 0.172436139,1.95487438 L0.0204464738,1.81097313 L19.042018,1.38350699 C19.0420318,1.384014 19.0420456,1.384521 19.0420594,1.38502801 L18.9005376,1.53516344 L18.8981738,1.53521656 C18.8882564,1.27673536 18.8862642,1.06962944 18.8862605,0.606923828 L18.8875616,0.606912465 L19.035019,0.752826566 C19.0350194,0.753242177 19.0350198,0.753657787 19.0350202,0.754073398 L19.0350202,0.754073398 L19.0350202,0.754073398 Z" id="path-27"></path>
        <path d="M0.023793714,1.959375 C0.011896857,1.5675 0,1.16375 0,0.771875 L19.0349712,0.605625 C19.0349712,0.914375 19.0349712,1.223125 19.0468681,1.531875 L0.023793714,1.959375 L0.023793714,1.959375 Z" id="path-29"></path>
        <path d="M0.374478677,1.3793525 C0.394186178,1.05477313 0.415914597,0.794520625 0.469315186,0.2081925 L0.308296342,0.342629375 L19.2718852,1.99325438 L19.1365347,1.83398688 C19.1187013,2.06388688 19.1187013,2.06388688 19.100856,2.29096063 C19.0830107,2.51810562 19.0830107,2.51810562 19.0651536,2.74836187 L19.2242978,2.61170438 L0.236912821,1.22232938 L0.374478677,1.3793525 L0.374478677,1.3793525 Z" id="path-31"></path>
        <path d="M0.182276388,1.54980101 C0.211859123,1.38740575 0.235642408,1.25832453 0.28900202,0.969819375 C0.342500631,0.68057257 0.36632829,0.551249326 0.396064344,0.388002449 L0.395613804,0.387919254 L0.223209427,0.506661056 C0.223187343,0.506781494 0.223165259,0.506901931 0.223143175,0.507022368 L18.9354038,3.96237143 C18.9354766,3.96199545 18.9355494,3.96161946 18.9356222,3.96124345 L18.8183941,3.78981356 L18.8173557,3.78962181 C18.7729113,4.01881339 18.7504861,4.13497149 18.7296503,4.24663063 C18.6977615,4.41752902 18.6724112,4.56356569 18.6504309,4.70594602 L18.652908,4.70636934 L18.8203482,4.5859655 C18.8204337,4.58545312 18.8205193,4.58494077 18.820605,4.58442843 L0.0623843845,1.37871132 C0.0622871678,1.3792415 0.0621899512,1.37977169 0.0620927345,1.38030191 L0.180769407,1.54954348 L0.182276387,1.54980102 L0.182276388,1.54980101 L0.182276388,1.54980101 Z" id="path-33"></path>
        <path d="M0.762161138,1.35700214 C0.80667542,1.19901204 0.84245179,1.07055427 0.922560812,0.7818025 C1.00271502,0.492889193 1.03835748,0.364908703 1.08280243,0.207163817 L1.08207335,0.206955148 L0.89996053,0.308328653 C0.89988058,0.308614325 0.89980063,0.308900002 0.899720681,0.309185684 L19.1962331,5.545815 L19.0940153,5.36310625 L18.8441813,6.25373125 L19.0263341,6.15049 L0.658768589,1.17518574 C0.658658362,1.17557961 0.658548135,1.17597347 0.658437909,1.17636732 L0.760847569,1.35664633 L0.762161137,1.35700215 L0.762161138,1.35700214 L0.762161138,1.35700214 Z" id="path-35"></path>
        <path d="M0.239227626,1.17300403 C0.345688553,0.898485247 0.345892278,0.897959925 0.452759877,0.6223925 C0.452812223,0.622261875 0.452812223,0.622261875 0.452864569,0.62213125 C0.559710948,0.346614199 0.559883657,0.346168846 0.666385175,0.0715410617 L0.665665815,0.0707461032 L0.474879553,0.154169157 C0.474764814,0.154465022 0.474650075,0.154760887 0.474535336,0.155056752 L18.1742853,7.12458925 C18.1745415,7.12395681 18.1747977,7.12332437 18.175054,7.12269192 L18.095026,6.9338092 L18.0923865,6.93276987 C18.0369546,7.06564139 17.9815472,7.20448757 17.9209614,7.36137188 C17.874926,7.48060444 17.838895,7.57583243 17.7585437,7.78972382 L17.7589508,7.78987756 L17.9497555,7.70364355 C17.9498007,7.70352347 17.949846,7.70340339 17.9498912,7.70328331 L0.153618006,0.982570074 C0.153481501,0.982922064 0.153344996,0.983274054 0.153208491,0.983626045 L0.237966975,1.17312791 L0.239024678,1.17352735 L0.239227626,1.17300403 L0.239227626,1.17300403 Z" id="path-37"></path>
        <path d="M0.0999335989,1.121 C0.242695883,0.752875 0.385458167,0.38475 0.528220452,0.016625 L18.2307437,6.98725 C18.1117751,7.27225 18.0047034,7.55725 17.8976317,7.84225 L0.0999335989,1.121 L0.0999335989,1.121 Z" id="path-39"></path>
        <path d="M0.633030796,1.45505262 C0.70702346,1.30730398 0.766428892,1.19029044 0.899905627,0.92826875 C1.03357269,0.665872881 1.09319465,0.548243819 1.16749697,0.399958989 L1.16642122,0.399411171 L0.968791006,0.464227394 C0.968640248,0.464526181 0.96848949,0.464824962 0.968338732,0.465123736 L17.919628,9.09742852 C17.9197716,9.09715002 17.9199151,9.09687153 17.9200587,9.09659305 L17.8567887,8.89878285 L17.8555782,8.89816644 C17.7125144,9.1718981 17.5694915,9.45740033 17.4382835,9.7311917 L17.4399181,9.73199673 L17.6356136,9.66439385 C17.6358159,9.66397796 17.6360181,9.66356206 17.6362204,9.66314613 L0.566378768,1.25670579 C0.566226587,1.25700739 0.566074406,1.25730898 0.565922226,1.25761059 L0.632324122,1.45470461 L0.633030795,1.45505263 L0.633030796,1.45505262 L0.633030796,1.45505262 Z" id="path-41"></path>
        <path d="M0.357288604,1.4081106 C0.446587399,1.26945321 0.516919699,1.15637652 0.672791058,0.902975 C0.828401948,0.6500375 0.897939077,0.53829375 0.9864279,0.4009 L0.781599948,0.445727564 C0.78156477,0.445783288 0.781529592,0.445839013 0.781494414,0.445894739 L16.8301862,10.6701625 L16.7847283,10.4653187 C16.714751,10.5750437 16.6604299,10.6625625 16.5395579,10.8592125 C16.4195186,11.0544375 16.3657805,11.141125 16.2969572,11.2490687 L16.5006552,11.2025187 L0.310623803,1.20475126 C0.31028837,1.20528262 0.309952915,1.20581395 0.309617437,1.20634526 L0.355096077,1.40675668 L0.357288596,1.40811062 L0.357288604,1.4081106 L0.357288604,1.4081106 Z" id="path-43"></path>
        <path d="M15.7594491,11.8776299 L0.769690958,0.1691 L0.977017486,0.14546875 C0.736106131,0.44329375 0.500072488,0.74871875 0.255116202,1.078725 L0.225647687,0.87221875 L15.3818644,12.3788059 C15.3817699,12.3789317 15.3816754,12.3790575 15.3815809,12.3791833 L15.1739296,12.4072375 C15.2437046,12.3159188 15.3141578,12.2216312 15.452661,12.0357875 C15.5671902,11.8827317 15.6497683,11.7749165 15.7342424,11.6695096 L15.7355091,11.670499 L15.7596716,11.8773432 C15.7595974,11.8774388 15.7595232,11.8775344 15.7594491,11.8776299 L15.7594491,11.8776299 L15.7594491,11.8776299 Z" id="path-45"></path>
        <path d="M0.13562417,0.990375 C0.37356131,0.66975 0.611498451,0.361 0.861332448,0.05225 L15.8513723,11.761 C15.6610226,11.9985 15.4825697,12.247875 15.29222,12.49725 L0.13562417,0.990375 L0.13562417,0.990375 Z" id="path-47"></path>
        <path d="M0.275743745,1.41894969 C0.389381182,1.30058931 0.480937478,1.20367929 0.685413623,0.9863375 C0.890289398,0.76843125 0.981264664,0.67224375 1.09480827,0.55396875 L0.884923915,0.55871875 L14.6733812,13.6568438 L14.6679443,13.44725 C14.5780755,13.5420125 14.5078602,13.6175375 14.35125,13.7872313 C14.1955677,13.955975 14.1259949,14.0307875 14.0374109,14.124125 L14.2463554,14.1172375 L0.269233851,1.21066884 C0.268704422,1.2112253 0.268174993,1.21178173 0.267645564,1.21233813 L0.273814435,1.41716817 L0.275743735,1.4189497 L0.275743745,1.41894969 L0.275743745,1.41894969 Z" id="path-49"></path>
        <path d="M0.166555998,1.318125 C0.44018371,1.033125 0.713811421,0.73625 0.987439132,0.45125 L14.7758964,13.549375 C14.561753,13.775 14.3595064,14.000625 14.145363,14.22625 L0.166555998,1.318125 L0.166555998,1.318125 Z" id="path-51"></path>
        <path d="M0.194142827,0.923001792 L1.0848255,0.140641041 L1.08407754,0.139779753 L0.876600584,0.125858725 L0.875784687,0.126575396 L13.3423836,14.4819451 C13.3426148,14.4817459 13.3428461,14.4815468 13.3430774,14.4813476 L13.3588782,14.2742925 L13.3579579,14.2732328 C13.1589616,14.4420037 13.0055912,14.5771859 12.6663124,14.8801954 L12.6664421,14.8803405 L12.8760236,14.8921843 C12.8760725,14.8921407 12.8761215,14.892097 12.8761704,14.8920534 L0.206810782,0.714190872 L0.20606415,0.714846701 L0.193501095,0.922283651 L0.194142827,0.923001792 L0.194142827,0.923001792 L0.194142827,0.923001792 Z" id="path-53"></path>
        <path d="M0.635768039,1.19985 C1.11661521,0.84443125 1.3301281,0.6885125 1.59648683,0.5013625 L1.38974325,0.46609375 L12.4300266,15.9510937 L12.4647535,15.7442312 C12.3604181,15.8185687 12.2754388,15.8796062 12.0835187,16.0177125 C11.8917652,16.1557 11.8072142,16.2163812 11.7033546,16.2904812 L11.9097889,16.3236125 L0.667259019,0.9929875 L0.635768039,1.19985 L0.635768039,1.19985 Z" id="path-55"></path>
        <path d="M0.547255423,1.080625 C0.868470562,0.843125 1.1896857,0.605625 1.51090084,0.38 L12.5511842,15.865 C12.3013502,16.043125 12.0396193,16.233125 11.7897853,16.41125 L0.547255423,1.080625 L0.547255423,1.080625 Z" id="path-57"></path>
        <path d="M0.361427526,0.737976695 C0.504547698,0.654334802 0.617945284,0.588522683 0.871599436,0.4419875 C1.12549803,0.295216252 1.23923814,0.229273006 1.38279739,0.14525606 L1.38218635,0.144195949 L1.18120704,0.0909914834 C1.18089924,0.0911706323 1.18059144,0.091349774 1.18028365,0.0915289084 L10.6734437,16.5612313 L10.7266941,16.359475 C10.6181947,16.4234813 10.5297416,16.4747813 10.3294104,16.590325 C10.1282227,16.7063438 10.0392223,16.7578813 9.92960464,16.8226 L10.1331242,16.8746125 L0.41390078,0.53546784 C0.413614423,0.5356345 0.413328059,0.535801167 0.413041689,0.53596784 L0.361011528,0.737277356 L0.361427525,0.737976696 L0.361427526,0.737976695 L0.361427526,0.737976695 Z" id="path-59"></path>
        <path d="M0.285524568,0.610375 C0.630533422,0.4085 0.963645418,0.2185 1.30865427,0.016625 L10.8023462,16.48725 C10.5406153,16.641625 10.2669876,16.796 10.0052568,16.950375 L0.285524568,0.610375 L0.285524568,0.610375 Z" id="path-61"></path>
        <path d="M0.479691798,1.14372538 C0.627831318,1.07470295 0.748137608,1.01935255 1.0197391,0.8949 C1.29129226,0.770493683 1.41202467,0.714993623 1.56045838,0.645836144 L1.55980476,0.644398035 L1.36546215,0.572594632 C1.36503127,0.572793894 1.36460038,0.572993156 1.36416947,0.573192417 L9.22740455,17.873775 L9.30086764,17.6776 C8.87236505,17.8736495 8.68346272,17.9609577 8.4548444,18.0700173 L8.45524751,18.0708729 L8.65194529,18.1409259 C8.65212,18.1408435 8.65229471,18.1407612 8.65246943,18.1406789 L0.551238558,0.946801085 C0.551037871,0.946893888 0.550837186,0.946986691 0.550636504,0.947079494 L0.479496867,1.14331166 L0.479691798,1.14372538 L0.479691798,1.14372538 L0.479691798,1.14372538 Z" id="path-63"></path>
        <path d="M0.416389996,1.009375 C0.773295706,0.843125 1.14209827,0.676875 1.49900398,0.510625 L9.36282647,17.8125 C9.0773019,17.943125 8.79177734,18.07375 8.51814962,18.204375 L0.416389996,1.009375 L0.416389996,1.009375 Z" id="path-65"></path>
        <path d="M0.257115059,0.892627567 C0.809482595,0.696945288 1.05697979,0.610030629 1.37344556,0.501431557 L1.37337671,0.501230669 L1.18504231,0.409306832 C1.18493397,0.409344277 1.18482563,0.409381722 1.18471729,0.409419166 L7.34630405,18.385295 C7.34716284,18.3850166 7.34802171,18.3847381 7.34888067,18.3844597 L7.44068024,18.2020437 L7.43971467,18.1992267 C7.0939403,18.3097801 6.8278962,18.4000854 6.5693099,18.4968959 L6.57007068,18.4990176 L6.75760989,18.5857912 C6.75805672,18.5856297 6.75850355,18.5854681 6.75895039,18.5853066 L0.347150235,0.703246078 C0.34702828,0.70328925 0.346906325,0.703332423 0.34678437,0.703375596 L0.256978896,0.892247819 L0.257115059,0.892627567 L0.257115059,0.892627567 L0.257115059,0.892627567 Z" id="path-67"></path>
        <path d="M0.207005312,0.752875 C0.57580788,0.62225 0.944610447,0.491625 1.32530987,0.361 L7.48788181,18.33975 C7.19046038,18.43475 6.90493581,18.52975 6.61941124,18.636625 L0.207005312,0.752875 L0.207005312,0.752875 Z" id="path-69"></path>
        <path d="M0.476632494,0.873074496 C0.634841667,0.833574774 0.763056839,0.801980882 1.05272908,0.7307875 C1.34177597,0.659788603 1.47048298,0.628055223 1.62857165,0.588587798 L1.62817148,0.586906902 L1.4514362,0.479618432 C1.45091517,0.47974757 1.45039412,0.479876709 1.44987306,0.480005848 L5.85133826,18.9678187 L5.9613128,18.7892187 C5.73824674,18.8426562 5.73824674,18.8426562 5.51518067,18.8960937 L5.06904853,19.0029687 L5.24792967,19.1109125 L0.584478064,0.693246985 C0.584324709,0.693284991 0.584171356,0.693322998 0.584018005,0.693361005 L0.476537147,0.87269794 L0.476632493,0.873074496 L0.476632494,0.873074496 L0.476632494,0.873074496 Z" id="path-71"></path>
        <path d="M0.44018371,0.729125 C0.820883134,0.634125 1.21347942,0.539125 1.59417884,0.444125 L5.99601594,18.9335 C5.69859451,19.00475 5.40117309,19.076 5.10375166,19.14725 L0.44018371,0.729125 L0.44018371,0.729125 Z" id="path-73"></path>
        <path d="M0.200850881,0.436507584 C0.363403507,0.41193511 0.49378894,0.393646826 0.787441069,0.35375625 C1.08146189,0.313657125 1.21293932,0.295237766 1.37659916,0.27056532 L1.37633273,0.268640511 L1.21057587,0.145030039 C1.21009495,0.145099618 1.20961403,0.145169185 1.20913311,0.145238738 L3.8143465,18.9656812 L3.93903746,18.7987187 C3.81121763,18.8183125 3.71014193,18.8325625 3.48339973,18.863675 C3.25522072,18.894888 3.15303653,18.9093768 3.02320749,18.9293087 L3.02324223,18.9295363 L3.19260486,19.053675 L0.325552001,0.268012628 C0.325356806,0.268040859 0.325161611,0.268069091 0.324966416,0.268097325 L0.200833331,0.436392592 L0.200850881,0.436507584 L0.200850881,0.436507584 L0.200850881,0.436507584 Z" id="path-75"></path>
        <path d="M0.178452855,0.28975 C0.571049137,0.230375 0.963645418,0.182875 1.3562417,0.1235 L3.96165339,18.945375 C3.6523351,18.992875 3.35491368,19.0285 3.0455954,19.076 L0.178452855,0.28975 L0.178452855,0.28975 Z" id="path-77"></path>
        <path d="M1.8738664,19.0650799 L1.08869328,0.077425 L1.24178204,0.21956875 C0.911834606,0.22954375 0.606906264,0.24545625 0.056581452,0.278825 L0.1960721,0.12243125 L1.24299552,19.0868063 L1.08880035,18.9466813 C1.32078907,18.937775 1.32078907,18.937775 1.55277778,18.9288688 C1.56642347,18.9283938 1.56642347,18.9283938 1.58006917,18.9278 C1.7982714,18.9194929 1.79841209,18.9194875 2.01633312,18.9110725 L2.01635054,18.9114938 L1.87433733,19.0650618 C1.87418036,19.0650678 1.87402338,19.0650738 1.8738664,19.0650799 L1.8738664,19.0650799 L1.8738664,19.0650799 Z" id="path-79"></path>
        <path d="M0.363248748,18.9110805 C0.594605106,18.9199625 0.594815954,18.9199706 0.826593625,18.9288688 C1.05858234,18.937775 1.05858234,18.937775 1.29057105,18.9466813 L1.13637589,19.0868063 L2.1832993,0.12243125 L2.32278995,0.278825 C1.77246514,0.24545625 1.4675368,0.22954375 1.13758936,0.21956875 L1.29067812,0.077425 L0.505504999,19.0650799 C0.505348023,19.0650738 0.505191046,19.0650678 0.50503407,19.0650618 L0.363020858,18.9114938 L0.363038283,18.9110725 L0.363248748,18.9110805 L0.363248748,18.9110805 Z" id="path-81"></path>
        <path d="M1.14209827,0.07125 C1.53469456,0.083125 1.93918769,0.106875 2.33178398,0.130625 L1.28486056,19.095 C0.975542275,19.083125 0.666223993,19.07125 0.35690571,19.059375 L1.14209827,0.07125 L1.14209827,0.07125 Z" id="path-83"></path>
        <path d="M2.69688468,0.27056532 C2.86054453,0.295237766 2.99202195,0.313657125 3.28604277,0.35375625 C3.5796949,0.393646826 3.71008034,0.41193511 3.87263296,0.436507584 L3.87265051,0.436392592 L3.74851743,0.268097325 C3.74832223,0.268069091 3.74812704,0.268040859 3.74793184,0.268012629 L0.880878984,19.053675 L1.05024161,18.9295363 L1.05027635,18.9293087 C0.920447311,18.9093768 0.818263122,18.894888 0.590084108,18.863675 C0.36334191,18.8325625 0.262266213,18.8183125 0.134446381,18.7987187 L0.25913734,18.9656812 L2.86435073,0.145238737 C2.86386981,0.145169185 2.86338889,0.145099618 2.86290797,0.145030039 L2.69715112,0.268640511 L2.69688468,0.270565319 L2.69688468,0.27056532 L2.69688468,0.27056532 Z" id="path-85"></path>
        <path d="M2.71724214,0.1235 C3.10983842,0.182875 3.50243471,0.230375 3.89503099,0.28975 L1.02788845,19.076 C0.718570164,19.0285 0.421148738,18.992875 0.111830456,18.945375 L2.71724214,0.1235 L2.71724214,0.1235 Z" id="path-87"></path>
        <path d="M4.82428359,0.588587798 C4.98237226,0.628055223 5.11107927,0.659788603 5.40012616,0.7307875 C5.68979841,0.801980882 5.81801358,0.833574774 5.97622275,0.873074496 L5.9763181,0.87269794 L5.86883724,0.693361005 C5.86868389,0.693322998 5.86853054,0.693284991 5.86837718,0.693246985 L1.20492558,19.1109125 L1.38380672,19.0029687 L0.937674579,18.8960937 C0.71460851,18.8426563 0.71460851,18.8426563 0.491542441,18.7892188 L0.601516988,18.9678187 L5.00298219,0.480005848 C5.00246112,0.479876709 5.00194007,0.47974757 5.00141904,0.479618432 L4.82468377,0.586906902 L4.82428359,0.588587797 L4.82428359,0.588587798 L4.82428359,0.588587798 Z" id="path-89"></path>
        <path d="M4.85867641,0.444125 C5.23937583,0.539125 5.63197211,0.634125 6.01267154,0.729125 L1.34910359,19.14725 C1.05168216,19.076 0.754260735,19.00475 0.456839309,18.9335 L4.85867641,0.444125 L4.85867641,0.444125 Z" id="path-91"></path>
        <path d="M6.26909538,0.501431557 C6.58556116,0.610030629 6.83305835,0.696945288 7.38542589,0.892627567 L7.38556205,0.892247819 L7.29575658,0.703375596 C7.29563462,0.703332423 7.29551267,0.70328925 7.29539071,0.703246078 L0.883590555,18.5853066 C0.884037394,18.5854681 0.884484228,18.5856297 0.884931058,18.5857912 L1.07247027,18.4990176 L1.07323105,18.4968959 C0.814644748,18.4000854 0.548600652,18.3097801 0.202826282,18.1992267 L0.201860707,18.2020437 L0.293660272,18.3844597 C0.294519233,18.3847381 0.295378108,18.3850166 0.296236897,18.385295 L6.45782366,0.409419166 C6.45771532,0.409381722 6.45760698,0.409344277 6.45749864,0.409306832 L6.26916424,0.501230669 L6.26909538,0.501431557 L6.26909538,0.501431557 L6.26909538,0.501431557 Z" id="path-93"></path>
        <path d="M7.95701908,0.645854081 C8.10552941,0.71500322 8.22626446,0.770504438 8.497806,0.8949 C8.76941933,1.01936342 8.8897229,1.07471262 9.03778529,1.14374347 L9.03796195,1.14336855 L8.96686308,0.947085956 C8.966661,0.946992505 8.96645891,0.946899053 8.96625682,0.946805602 L0.865016181,18.1406789 C0.865190899,18.1407612 0.865365612,18.1408435 0.865540322,18.1409259 L1.06223811,18.0708729 L1.06264122,18.0700173 C0.834022897,17.9609577 0.645120562,17.8736495 0.216617973,17.6776 L0.290081065,17.873775 L8.15328665,0.573178781 C8.15286028,0.572981613 8.15243391,0.572784446 8.15200757,0.572587279 L7.95769043,0.644376962 L7.95701907,0.645854078 L7.95701908,0.645854081 L7.95701908,0.645854081 Z" id="path-95"></path>
        <path d="M8.01848163,0.510625 C8.37538734,0.676875 8.74418991,0.843125 9.10109562,1.009375 L0.999335989,18.204375 C0.725708278,18.07375 0.44018371,17.943125 0.154659141,17.8125 L8.01848163,0.510625 L8.01848163,0.510625 Z" id="path-97"></path>
        <path d="M9.82880368,0.145250816 C9.97237868,0.229270262 10.0860592,0.295213198 10.3400343,0.4419875 C10.593612,0.5885197 10.7070338,0.654332122 10.8501736,0.737971587 L10.8505947,0.737263645 L10.7985286,0.5359517 C10.7982456,0.535786978 10.7979626,0.535622262 10.7976796,0.535457553 L1.07845009,16.8746125 L1.28200531,16.8226 C1.17243526,16.7578813 1.0833278,16.7063438 0.882151948,16.590325 C0.681808876,16.4747813 0.593415228,16.4234813 0.484903995,16.359475 L0.538094843,16.5612313 L10.0312699,0.091502985 C10.0309708,0.0913289133 10.0306717,0.0911548348 10.0303726,0.0909807495 L9.82940966,0.144199484 L9.82880368,0.145250814 L9.82880368,0.145250816 L9.82880368,0.145250816 Z" id="path-99"></path>
        <path d="M9.90294378,0.016625 C10.2479526,0.2185 10.5810646,0.4085 10.9260735,0.610375 L1.2063413,16.950375 C0.944610447,16.796 0.670982736,16.641625 0.409251881,16.48725 L9.90294378,0.016625 L9.90294378,0.016625 Z" id="path-101"></path>
        <path d="M11.4901035,0.5013625 C11.7564741,0.6885125 11.9699037,0.84443125 12.4507747,1.19985 L12.419248,0.9929875 L1.17671813,16.3236125 L1.38324757,16.2904812 C1.279388,16.2163812 1.19480135,16.1557 1.00302402,16.0177125 C0.811127711,15.8796062 0.726184152,15.8185687 0.621848716,15.7442312 L0.65646857,15.9510937 L11.6967519,0.46609375 L11.4901035,0.5013625 L11.4901035,0.5013625 Z" id="path-103"></path>
        <path d="M12.5061337,0.140652897 L13.3968162,0.923013501 L13.3974461,0.922308587 L13.3848802,0.714824627 L13.3841453,0.714179162 L0.714785789,14.8920416 C0.714838667,14.8920887 0.714891545,14.8921359 0.714944424,14.892183 L0.92453051,14.880337 L0.924630663,14.8802249 C0.585408227,14.5771808 0.432012313,14.4419968 0.233031661,14.2732096 L0.232135112,14.274242 L0.247955622,14.4814024 C0.248177069,14.481593 0.2483985,14.4817837 0.248619922,14.4819744 L12.7152185,0.126605036 L12.714373,0.125862394 L12.5068933,0.139778104 L12.5061337,0.140652897 L12.5061337,0.140652897 L12.5061337,0.140652897 Z" id="path-105"></path>
        <path d="M14.5049422,1.41892122 C14.3912363,1.30057377 14.2997488,1.20366187 14.0952772,0.9863375 C13.8904133,0.76843125 13.7994024,0.67224375 13.6859064,0.55396875 L13.8957669,0.55871875 L0.10730965,13.6568438 L0.112663236,13.44725 C0.202603475,13.5420125 0.272794931,13.6175375 0.42935757,13.7872313 C0.585087428,13.955975 0.654684042,14.0307875 0.743196658,14.124125 L0.534287849,14.1172375 L14.5114157,1.21066299 C14.5119435,1.21121773 14.5124713,1.21177244 14.5129991,1.21232711 L14.5069006,1.41711286 L14.5049422,1.41892123 L14.5049422,1.41892122 L14.5049422,1.41892122 Z" id="path-107"></path>
        <path d="M13.793216,0.45125 C14.0668437,0.73625 14.3404714,1.033125 14.6140992,1.318125 L0.635292165,14.22625 C0.421148738,14.000625 0.218902169,13.775 0.00475874281,13.549375 L13.793216,0.45125 L13.793216,0.45125 Z" id="path-109"></path>
        <path d="M0.588463461,12.3787887 L15.7446575,0.87221875 L15.7152722,1.078725 C15.470316,0.74871875 15.2342823,0.44329375 14.993371,0.14546875 L15.2006142,0.1691 L0.210878333,11.8776126 C0.210798319,11.8775095 0.210718304,11.8774064 0.210638288,11.8773034 L0.234818432,11.6705094 L0.236091123,11.6695153 C0.320563828,11.7749204 0.403164433,11.8827345 0.517632249,12.0357875 C0.656230633,12.2216312 0.726660027,12.3159188 0.796375609,12.4072375 L0.588764027,12.3791886 C0.588663836,12.3790553 0.588563647,12.378922 0.588463461,12.3787887 L0.588463461,12.3787887 L0.588463461,12.3787887 Z" id="path-111"></path>
        <path d="M15.1090084,0.05225 C15.3588424,0.361 15.5967795,0.66975 15.8347167,0.990375 L0.67812085,12.49725 C0.487771138,12.247875 0.309318282,11.9985 0.11896857,11.761 L15.1090084,0.05225 L15.1090084,0.05225 Z" id="path-113"></path>
        <path d="M16.8027795,1.40808498 C16.7133954,1.26943927 16.6431211,1.15636091 16.4872593,0.902975 C16.3316484,0.6500375 16.2620518,0.53829375 16.1736581,0.4009 L16.3784171,0.445712458 C16.3784611,0.445782227 16.3785052,0.445851996 16.3785492,0.445921766 L0.329899845,10.6701625 L0.375345839,10.4653187 C0.445299358,10.5750437 0.499549026,10.6625625 0.620421093,10.8592125 C0.740460381,11.0544375 0.794234174,11.141125 0.863116977,11.2490687 L0.659323816,11.2025187 L16.8493894,1.20473012 C16.8497179,1.20525055 16.8500465,1.20577096 16.8503751,1.20629135 L16.8049975,1.40671528 L16.8027795,1.40808499 L16.8027795,1.40808498 L16.8027795,1.40808498 Z" id="path-115"></path>
        <path d="M16.2986941,0.320625 C16.5128375,0.653125 16.7150841,0.9975 16.9292275,1.33 L0.737605135,11.32875 C0.571049137,11.0675 0.416389996,10.80625 0.249833997,10.545 L16.2986941,0.320625 L16.2986941,0.320625 Z" id="path-117"></path>
        <path d="M17.1822184,0.399957427 C17.2565595,0.548242993 17.3160798,0.66587196 17.449834,0.92826875 C17.5832236,1.19028957 17.6427309,1.3073032 17.7166845,1.45505114 L17.7173924,1.45470249 L17.783795,1.25762045 C17.7836417,1.25731665 17.7834884,1.25701286 17.7833352,1.25670908 L0.713494119,9.66315086 C0.713694833,9.66356353 0.713895525,9.66397618 0.714096195,9.66438882 L0.909808708,9.73198954 L0.911457239,9.73117768 C0.780170211,9.45739375 0.637210377,9.17190003 0.494115369,8.89817594 L0.492895287,8.89879725 L0.429646146,9.09657872 C0.42979137,9.09686038 0.429936595,9.09714205 0.430081817,9.09742372 L17.3813721,0.465120844 C17.3812223,0.464823959 17.3810725,0.464527068 17.3809227,0.464230171 L17.1832924,0.399410476 L17.1822184,0.399957424 L17.1822184,0.399957427 L17.1822184,0.399957427 Z" id="path-119"></path>
        <path d="M17.3146857,0.3325 C17.4931386,0.68875 17.6715914,1.033125 17.8500443,1.389375 L0.778054449,9.796875 C0.647189022,9.52375 0.504426737,9.23875 0.361664453,8.965625 L17.3146857,0.3325 L17.3146857,0.3325 Z" id="path-121"></path>
        <path d="M17.6832994,0.0715586808 C17.7898465,0.34629949 17.7900214,0.346750716 17.8969179,0.6223925 C18.0037877,0.897965607 18.0039892,0.898485268 18.1104567,1.17302101 L18.1117044,1.17314334 L18.1965217,0.983672368 C18.1963809,0.983309247 18.1962401,0.982946127 18.1960993,0.982583006 L0.399825505,7.70329511 C0.39986684,7.70340481 0.399908175,7.70351452 0.39994951,7.70362422 L0.590735646,7.7898873 L0.59112694,7.78973953 C0.51080714,7.5758371 0.47477553,7.48060736 0.428762727,7.36137188 C0.36812849,7.20448441 0.312778479,7.06563579 0.257346145,6.93276182 L0.25471508,6.93379785 L0.174675614,7.12273479 C0.174927759,7.12335698 0.175179857,7.12397918 0.175431908,7.12460137 L17.8751815,0.155068538 C17.8750629,0.154762769 17.8749443,0.154456999 17.8748258,0.15415123 L17.6840285,0.0707531586 L17.683125,0.071108932 L17.6832994,0.0715586808 L17.6832994,0.0715586808 Z" id="path-123"></path>
        <path d="M17.8214918,0.016625 C17.9642541,0.38475 18.1070164,0.752875 18.2497787,1.121 L0.452080567,7.84225 C0.345008853,7.55725 0.23793714,7.27225 0.11896857,6.98725 L17.8214918,0.016625 L17.8214918,0.016625 Z" id="path-125"></path>
        <path d="M18.4566295,0.207154105 C18.5010297,0.36490345 18.5367335,0.492883264 18.6167967,0.7818025 C18.6969967,1.07054867 18.732712,1.19900706 18.7772707,1.35699296 L18.7785941,1.3566345 L18.880975,1.17642056 C18.8808608,1.17601276 18.8807467,1.17560494 18.8806326,1.17519712 L0.513111443,6.15049 L0.695252324,6.25373125 L0.445418327,5.36310625 L0.343224325,5.545815 L18.6396813,0.309200186 C18.6395967,0.308897666 18.639512,0.308595151 18.6394274,0.308292643 L18.457349,0.20694816 L18.4566295,0.207154104 L18.4566295,0.207154105 L18.4566295,0.207154105 Z" id="path-127"></path>
        <path d="M18.6388884,0.388005866 C18.6685923,0.551251131 18.6925102,0.680574588 18.7459966,0.969819375 C18.7993684,1.25832643 18.8230618,1.38740745 18.8526761,1.54980422 L18.8541803,1.54954715 L18.972877,1.38029369 C18.9727802,1.37976582 18.9726834,1.37923797 18.9725866,1.37871013 L0.214365923,4.58442646 C0.214452226,4.58494282 0.214538502,4.58545921 0.214624748,4.58597563 L0.382015801,4.70637745 L0.384483336,4.70595575 C0.362561147,4.56357235 0.337210172,4.41753291 0.305273351,4.24663063 C0.284484762,4.13496978 0.262035555,4.01880982 0.217672583,3.78961127 L0.216644304,3.78980115 L0.0993386734,3.9611902 C0.0994143904,3.96158113 0.0994901044,3.96197205 0.0995658154,3.96236295 L18.8118265,0.507014081 C18.8118072,0.506908582 18.8117878,0.506803084 18.8117685,0.506697584 L18.6393423,0.387922038 L18.6388884,0.388005865 L18.6388884,0.388005866 L18.6388884,0.388005866 Z" id="path-129"></path>
        <path d="M19.070067,0.2081925 C19.1234838,0.794520625 19.1452551,1.05477313 19.1648849,1.3793525 L19.3025315,1.22232938 L0.315147742,2.61170438 L0.474208721,2.74836187 C0.456363435,2.51810562 0.456363435,2.51810562 0.43851815,2.29096063 C0.420672864,2.06388688 0.420672864,2.06388688 0.402827579,1.83398688 L0.267560314,1.99325438 L19.2311504,0.342629375 L19.070067,0.2081925 L19.070067,0.2081925 Z" id="path-131"></path>
        <path d="M0.497379982,1.38350726 L19.5189354,1.81097313 L19.3670125,1.95487438 C19.3842629,1.38532563 19.3906873,1.09844938 19.3906873,0.771875 L19.5380893,0.9203125 L0.504377762,0.754073502 C0.504378178,0.753653962 0.504378589,0.753234421 0.504378998,0.752814881 L0.651836266,0.606912464 L0.653137445,0.606923828 C0.653133687,1.06962928 0.65111795,1.27673522 0.641212182,1.53521629 L0.638848166,1.53516317 L0.497338238,1.38504027 C0.49735218,1.38452927 0.497366095,1.38401827 0.497379982,1.38350726 L0.497379982,1.38350726 L0.497379982,1.38350726 Z" id="path-133"></path>
        <path d="M19.539398,0.771875 C19.539398,1.16375 19.5275011,1.5675 19.5156042,1.959375 L0.49252988,1.531875 C0.504426737,1.223125 0.504426737,0.914375 0.504426737,0.605625 L19.539398,0.771875 L19.539398,0.771875 Z" id="path-135"></path>
        <path d="M18.9156078,2.34040968 C18.895764,2.50372761 18.8813576,2.63652396 18.850213,2.93432437 C18.8190433,3.23186437 18.804767,3.36343937 18.7850183,3.52564 L18.9499566,3.39634968 C18.9499671,3.39625791 18.9499776,3.39616614 18.949988,3.39607437 L0.0461598052,1.1398575 L0.176311421,1.30426687 C0.203079349,1.07270437 0.203079349,1.07270437 0.229847278,0.841141875 C0.256615206,0.609579375 0.256615206,0.609579375 0.283383134,0.378016875 L0.120039287,0.508618125 L19.0461929,2.50343411 C19.0462596,2.50284972 19.0463262,2.50226534 19.0463929,2.50168098 L18.9178866,2.34064986 L18.9156078,2.34040967 L18.9156078,2.34040968 L18.9156078,2.34040968 Z" id="path-137"></path>
        <path d="M19.0635237,2.356 C19.0159363,2.747875 18.9802457,3.151625 18.9326583,3.5435 L0.0285524568,1.28725 C0.0642430279,0.9785 0.0999335989,0.66975 0.13562417,0.361 L19.0635237,2.356 L19.0635237,2.356 Z" id="path-139"></path>
        <path d="M18.8464106,4.00779449 C18.8116686,4.17130482 18.7853642,4.30089382 18.7273185,4.59026937 C18.6695997,4.87865329 18.6434172,5.00746763 18.6088862,5.16960394 L18.6097286,5.16978738 L18.7844422,5.0571291 C18.7845225,5.05674149 18.7846029,5.05635389 18.7846832,5.05596631 L0.192926496,1.00725132 C0.192785737,1.00788032 0.192644935,1.00850925 0.19250409,1.00913812 L0.301663094,1.18285165 L0.304686702,1.1835101 C0.337147012,1.04833738 0.36859543,0.903261715 0.404850044,0.72406625 C0.423455575,0.631883756 0.485029976,0.319572241 0.49550291,0.267206204 L0.494901525,0.26708362 L0.321042177,0.38225958 C0.320986534,0.38254182 0.320930889,0.382824074 0.320875242,0.383106343 L18.9616648,4.18278319 C18.9617158,4.18253744 18.9617667,4.18229169 18.9618177,4.18204593 L18.8475129,4.00801917 L18.8464106,4.00779449 L18.8464106,4.00779449 L18.8464106,4.00779449 Z" id="path-141"></path>
        <path d="M18.9921425,4.0375 C18.9088645,4.429375 18.8374834,4.809375 18.7542054,5.20125 L0.159417884,1.151875 C0.230799026,0.855 0.290283311,0.534375 0.349767596,0.2375 L18.9921425,4.0375 L18.9921425,4.0375 Z" id="path-143"></path>
        <path d="M18.702331,6.025008 C18.6134654,6.30885552 18.6133451,6.30923985 18.5242392,6.593855 C18.4352122,6.87821789 18.4350132,6.87885358 18.3463834,7.16194794 L18.3474583,7.16299046 L18.5316653,7.06774491 C18.5318033,7.06730433 18.5319412,7.06686374 18.5320791,7.06642316 L0.414486498,1.23622313 L0.510494135,1.42274375 C0.550348606,1.29825813 0.580685591,1.2003725 0.647783865,0.981575625 C0.714525232,0.76396625 0.744624281,0.6669 0.784121846,0.54399375 L0.598887782,0.640668125 L18.8002681,6.20979502 C18.8003524,6.20952575 18.8004367,6.20925649 18.800521,6.20898722 L18.7032237,6.02486111 L18.702451,6.0246247 L18.702331,6.025008 L18.702331,6.025008 Z" id="path-145"></path>
        <path d="M18.29073,7.80463355 C18.1750663,8.07994025 18.174956,8.08020268 18.059072,8.35603375 C17.9433945,8.63137336 17.9430786,8.63212544 17.8280312,8.905965 L17.8292212,8.90736199 L18.0211394,8.83022458 C18.0213492,8.82972529 18.021559,8.82922601 18.0217687,8.82872672 L0.546779548,1.28874625 L0.625060868,1.482095 C0.674432824,1.36379625 0.71393039,1.27068438 0.803037849,1.06155375 C0.892383245,0.852090625 0.932237716,0.75817125 0.981966578,0.63897 L0.787690903,0.71898375 L18.3707199,7.99814113 C18.3707932,7.99796654 18.3708666,7.99779195 18.3709399,7.99761736 L18.2913673,7.80458991 L18.29084,7.80437162 L18.29073,7.80463355 L18.29073,7.80463355 Z" id="path-147"></path>
        <path d="M18.4282315,7.86125 C18.2735724,8.229375 18.1189132,8.5975 17.9642541,8.965625 L0.487771138,1.425 C0.606739708,1.14 0.725708278,0.866875 0.844676848,0.581875 L18.4282315,7.86125 L18.4282315,7.86125 Z" id="path-149"></path>
        <path d="M17.1549473,9.28766891 C17.0758393,9.43071279 17.0122424,9.54732232 16.8698622,9.809225 C16.7273379,10.0716506 16.6639276,10.1877169 16.5849325,10.3307988 L16.7866305,10.2725478 C16.7866531,10.2725067 16.7866757,10.2724655 16.7866983,10.2724244 L0.120114083,1.10542625 C0.119967536,1.10569098 0.119820981,1.10595571 0.119674415,1.10622044 L0.176402341,1.30585111 L0.177823981,1.30663305 C0.307334417,1.07797936 0.404984059,0.894942951 0.618972636,0.485464392 L0.617798107,0.484839183 L0.419536865,0.546075234 C0.419339415,0.546452189 0.419141961,0.546829143 0.418944504,0.547206098 L17.2145099,9.48759239 C17.2148139,9.4870382 17.2151179,9.48648404 17.215422,9.4859299 L17.1568356,9.28867405 L17.1549473,9.2876689 L17.1549473,9.28766891 L17.1549473,9.28766891 Z" id="path-151"></path>
        <path d="M17.2861332,9.3575 C17.0957835,9.701875 16.9054338,10.058125 16.7150841,10.4025 L0.0475874281,1.235 C0.202246569,0.961875 0.345008853,0.68875 0.487771138,0.415625 L17.2861332,9.3575 L17.2861332,9.3575 Z" id="path-153"></path>
        <path d="M15.842869,11.3755823 C15.9134346,11.2717534 16.1501453,10.9270509 16.1803204,10.8829388 C16.3116617,10.6905875 16.4118332,10.5407844 16.5067701,10.3934869 L16.5495988,10.5974163 L0.693398654,0.0895722308 C0.693896614,0.088793487 0.694394557,0.0880147264 0.694892484,0.0872359492 L0.894824092,0.044911403 L0.897246471,0.0465167042 C0.648047346,0.437378972 0.534032356,0.610918272 0.384478346,0.820066157 L0.381985004,0.818363633 L0.346161154,0.616210012 C0.346501834,0.615717662 0.346842478,0.615225274 0.347183083,0.614732848 L16.0493093,11.3366799 C16.0492488,11.3367683 16.0491883,11.3368567 16.0491278,11.336945 L15.8433108,11.375884 L15.842869,11.3755823 L15.842869,11.3755823 L15.842869,11.3755823 Z" id="path-155"></path>
        <path d="M14.4595446,13.1692146 C14.5632868,13.0409699 14.6469009,12.9391811 14.8335962,12.7128288 C15.0207337,12.4860756 15.1037738,12.3848888 15.2075144,12.2567338 L15.2294046,12.4652113 L0.454330902,0.484003393 C0.454552026,0.483727951 0.454773148,0.48345251 0.454994266,0.483177068 L0.661816269,0.46102317 L0.662676373,0.461720634 C0.377155578,0.817914775 0.247744975,0.976995494 0.0784073249,1.17577921 L0.07741223,1.17494933 L0.0596820634,0.967629652 C0.0598226741,0.967461645 0.0599632797,0.967293639 0.0601038803,0.967125633 L14.6673305,13.1491128 C14.6668861,13.1496573 14.6664416,13.1502019 14.6659972,13.1507466 L14.4614162,13.1707755 L14.4595445,13.1692146 L14.4595446,13.1692146 L14.4595446,13.1692146 Z" id="path-157"></path>
        <path d="M15.8275786,12.35 C15.5777446,12.65875 15.3279106,12.955625 15.0780766,13.264375 L0.468736166,1.080625 C0.670982736,0.843125 0.861332448,0.605625 1.05168216,0.368125 L15.8275786,12.35 L15.8275786,12.35 Z" id="path-159"></path>
        <path d="M14.4782371,13.6247931 C14.206037,13.9082731 13.9338369,14.1799138 13.6498589,14.4515781 L13.8586487,14.4544875 L0.486581452,0.9288625 L0.485867641,1.13808813 L1.14019478,0.484963125 L0.930572156,0.485651875 L14.4810923,13.8331519 L14.4782371,13.6247931 L14.4782371,13.6247931 Z" id="path-161"></path>
    </defs>
    <g id="Page-1" stroke="none" stroke-width="1" fill="none" fill-rule="evenodd">
        <g id="Desktop-HD" transform="translate(-1120.000000, -260.000000)">
            <rect fill="none" x="0" y="0" width="1440" height="1024"></rect>
            <g id="gauge" transform="translate(1121.000000, 261.000000)">
                <g id="Page-1" opacity="0.400000006">
                    <g id="Group-3">
                        <mask id="mask-2" fill="white">
                            <use xlink:href="#path-1"></use>
                        </mask>
                        <g id="Clip-2"></g>
                        <polygon id="Fill-1" fill-opacity="0.002" fill="#455A64" mask="url(#mask-2)" points="-5.94248008 -5.9375 177.257221 -5.9375 177.257221 176.9375 -5.94248008 176.9375"></polygon>
                    </g>
                    <g id="Group-6" transform="translate(24.478973, 131.812500)">
                        <mask id="mask-4" fill="white">
                            <use xlink:href="#path-3"></use>
                        </mask>
                        <g id="Clip-5"></g>
                        <path d="M1.02788845,14.55875 C0.742363878,14.285625 0.468736166,14.0125 0.195108455,13.7275 L13.7456286,0.38 L14.3999557,1.033125 L1.02788845,14.55875 L1.02788845,14.55875 Z" id="Fill-4" fill="#000000" mask="url(#mask-4)"></path>
                    </g>
                    <path d="M25.5068614,146.37125 C25.2213369,146.098125 24.9477092,145.825 24.6740815,145.54 L38.2246016,132.1925 L38.8789287,132.845625 L25.5068614,146.37125 L25.5068614,146.37125 Z" id="Stroke-7" stroke="#FFFFFF" stroke-width="0.5"></path>
                    <g id="Group-11" transform="translate(19.034971, 127.062500)">
                        <mask id="mask-6" fill="white">
                            <use xlink:href="#path-5"></use>
                        </mask>
                        <g id="Clip-10"></g>
                        <path d="M0.892264276,13.264375 C0.642430279,12.955625 0.392596282,12.65875 0.142762284,12.35 L14.9186587,0.368125 C15.1090084,0.605625 15.2993581,0.843125 15.5016047,1.080625 L0.892264276,13.264375 L0.892264276,13.264375 Z" id="Fill-9" fill="#000000" mask="url(#mask-6)"></path>
                    </g>
                    <g id="Group-14" transform="translate(19.034971, 127.062500)">
                        <mask id="mask-8" fill="white">
                            <use xlink:href="#path-7"></use>
                        </mask>
                        <g id="Clip-13"></g>
                        <path d="M0.892264276,13.264375 C0.642430279,12.955625 0.392596282,12.65875 0.142762284,12.35 L14.9186587,0.368125 C15.1090084,0.605625 15.2993581,0.843125 15.5016047,1.080625 L0.892264276,13.264375 L0.892264276,13.264375 Z" id="Stroke-12" stroke="#FFFFFF" stroke-width="0.5" mask="url(#mask-8)"></path>
                    </g>
                    <g id="Group-17" transform="translate(14.276228, 122.312500)">
                        <mask id="mask-10" fill="white">
                            <use xlink:href="#path-9"></use>
                        </mask>
                        <g id="Clip-16"></g>
                        <path d="M0.690017707,11.459375 C0.463977424,11.126875 0.23793714,10.80625 0.023793714,10.47375 L15.8823041,-0.035625 C16.0488601,0.225625 16.2154161,0.486875 16.393869,0.73625 L0.690017707,11.459375 L0.690017707,11.459375 Z" id="Fill-15" fill="#000000" mask="url(#mask-10)"></path>
                    </g>
                    <path d="M14.9662461,133.771875 C14.7402058,133.439375 14.5141656,133.11875 14.3000221,132.78625 L30.1585325,122.276875 C30.3250885,122.538125 30.4916445,122.799375 30.6700974,123.04875 L14.9662461,133.771875 L14.9662461,133.771875 Z" id="Stroke-18" stroke="#FFFFFF" stroke-width="0.5"></path>
                    <g id="Group-22" transform="translate(9.517486, 116.375000)">
                        <mask id="mask-12" fill="white">
                            <use xlink:href="#path-11"></use>
                        </mask>
                        <g id="Clip-21"></g>
                        <path d="M1.13020142,10.4025 C0.939851704,10.058125 0.749501992,9.701875 0.55915228,9.3575 L17.3575144,0.415625 C17.5002767,0.68875 17.643039,0.961875 17.7976981,1.235 L1.13020142,10.4025 L1.13020142,10.4025 Z" id="Fill-20" fill="#000000" mask="url(#mask-12)"></path>
                    </g>
                    <g id="Group-25" transform="translate(9.517486, 116.375000)">
                        <mask id="mask-14" fill="white">
                            <use xlink:href="#path-13"></use>
                        </mask>
                        <g id="Clip-24"></g>
                        <path d="M1.13020142,10.4025 C0.939851704,10.058125 0.749501992,9.701875 0.55915228,9.3575 L17.3575144,0.415625 C17.5002767,0.68875 17.643039,0.961875 17.7976981,1.235 L1.13020142,10.4025 L1.13020142,10.4025 Z" id="Stroke-23" stroke="#FFFFFF" stroke-width="0.5" mask="url(#mask-14)"></path>
                    </g>
                    <g id="Group-28" transform="translate(5.948429, 110.437500)">
                        <mask id="mask-16" fill="white">
                            <use xlink:href="#path-15"></use>
                        </mask>
                        <g id="Clip-27"></g>
                        <path d="M1.07071713,8.965625 C0.91605799,8.5975 0.761398849,8.229375 0.606739708,7.86125 L18.1902944,0.581875 C18.3092629,0.866875 18.4282315,1.14 18.5472001,1.425 L1.07071713,8.965625 L1.07071713,8.965625 Z" id="Fill-26" fill="#000000" mask="url(#mask-16)"></path>
                    </g>
                    <g id="Group-31" transform="translate(5.948429, 110.437500)">
                        <mask id="mask-18" fill="white">
                            <use xlink:href="#path-17"></use>
                        </mask>
                        <g id="Clip-30"></g>
                        <path d="M1.07071713,8.965625 C0.91605799,8.5975 0.761398849,8.229375 0.606739708,7.86125 L18.1902944,0.581875 C18.3092629,0.866875 18.4282315,1.14 18.5472001,1.425 L1.07071713,8.965625 L1.07071713,8.965625 Z" id="Stroke-29" stroke="#FFFFFF" stroke-width="0.5" mask="url(#mask-18)"></path>
                    </g>
                    <g id="Group-34" transform="translate(3.569057, 104.500000)">
                        <mask id="mask-20" fill="white">
                            <use xlink:href="#path-19"></use>
                        </mask>
                        <g id="Clip-33"></g>
                        <path d="M0.547255423,7.208125 C0.428286853,6.828125 0.309318282,6.448125 0.190349712,6.068125 L18.3925409,0.49875 C18.4877158,0.795625 18.5709938,1.080625 18.6661687,1.3775 L0.547255423,7.208125 L0.547255423,7.208125 Z" id="Fill-32" fill="#000000" mask="url(#mask-20)"></path>
                    </g>
                    <path d="M4.11631253,111.708125 C3.99734396,111.328125 3.87837539,110.948125 3.75940682,110.568125 L21.9615981,104.99875 C22.0567729,105.295625 22.1400509,105.580625 22.2352258,105.8775 L4.11631253,111.708125 L4.11631253,111.708125 Z" id="Stroke-35" stroke="#FFFFFF" stroke-width="0.5"></path>
                    <g id="Group-39" transform="translate(1.189686, 98.562500)">
                        <mask id="mask-22" fill="white">
                            <use xlink:href="#path-21"></use>
                        </mask>
                        <g id="Clip-38"></g>
                        <path d="M0.785192563,5.20125 C0.701914564,4.809375 0.630533422,4.429375 0.547255423,4.0375 L19.1896304,0.2375 C19.2491147,0.534375 19.3085989,0.855 19.3799801,1.151875 L0.785192563,5.20125 L0.785192563,5.20125 Z" id="Fill-37" fill="#000000" mask="url(#mask-22)"></path>
                    </g>
                    <path d="M1.97487826,103.76375 C1.89160027,103.371875 1.82021912,102.991875 1.73694112,102.6 L20.3793161,98.8 C20.4388004,99.096875 20.4982846,99.4175 20.5696658,99.714375 L1.97487826,103.76375 L1.97487826,103.76375 Z" id="Stroke-40" stroke="#FFFFFF" stroke-width="0.5"></path>
                    <g id="Group-44" transform="translate(0.000000, 92.121500)">
                        <mask id="mask-24" fill="white">
                            <use xlink:href="#path-23"></use>
                        </mask>
                        <g id="Clip-43"></g>
                        <path d="M0.606739708,3.5435 C0.55915228,3.151625 0.523461709,2.747875 0.475874281,2.356 L19.4037738,0.361 C19.4394644,0.66975 19.4751549,0.9785 19.5108455,1.28725 L0.606739708,3.5435 L0.606739708,3.5435 Z" id="Fill-42" fill="#000000" mask="url(#mask-24)"></path>
                    </g>
                    <g id="Group-47" transform="translate(0.000000, 92.121500)">
                        <mask id="mask-26" fill="white">
                            <use xlink:href="#path-25"></use>
                        </mask>
                        <g id="Clip-46"></g>
                        <path d="M0.606739708,3.5435 C0.55915228,3.151625 0.523461709,2.747875 0.475874281,2.356 L19.4037738,0.361 C19.4394644,0.66975 19.4751549,0.9785 19.5108455,1.28725 L0.606739708,3.5435 L0.606739708,3.5435 Z" id="Stroke-45" stroke="#FFFFFF" stroke-width="0.5" mask="url(#mask-26)"></path>
                    </g>
                    <g id="Group-50" transform="translate(0.000000, 85.500000)">
                        <mask id="mask-28" fill="white">
                            <use xlink:href="#path-27"></use>
                        </mask>
                        <g id="Clip-49"></g>
                        <path d="M0.023793714,1.959375 C0.011896857,1.5675 0,1.16375 0,0.771875 L19.0349712,0.605625 C19.0349712,0.914375 19.0349712,1.223125 19.0468681,1.531875 L0.023793714,1.959375 L0.023793714,1.959375 Z" id="Fill-48" fill="#000000" mask="url(#mask-28)"></path>
                    </g>
                    <g id="Group-53" transform="translate(0.000000, 85.500000)">
                        <mask id="mask-30" fill="white">
                            <use xlink:href="#path-29"></use>
                        </mask>
                        <g id="Clip-52"></g>
                        <path d="M0.023793714,1.959375 C0.011896857,1.5675 0,1.16375 0,0.771875 L19.0349712,0.605625 C19.0349712,0.914375 19.0349712,1.223125 19.0468681,1.531875 L0.023793714,1.959375 L0.023793714,1.959375 Z" id="Stroke-51" stroke="#FFFFFF" stroke-width="0.5" mask="url(#mask-30)"></path>
                    </g>
                    <g id="Group-56" transform="translate(0.000000, 77.871500)">
                        <mask id="mask-32" fill="white">
                            <use xlink:href="#path-31"></use>
                        </mask>
                        <g id="Clip-55"></g>
                        <path d="M0.226040283,1.370375 C0.249833997,0.9785 0.285524568,0.586625 0.321215139,0.19475 L19.2848052,1.845375 C19.2610115,2.154125 19.2372178,2.451 19.2134241,2.75975 L0.226040283,1.370375 L0.226040283,1.370375 Z" id="Fill-54" fill="#000000" mask="url(#mask-32)"></path>
                    </g>
                    <path d="M0.226040283,79.241875 C0.249833997,78.85 0.285524568,78.458125 0.321215139,78.06625 L19.2848052,79.716875 C19.2610115,80.025625 19.2372178,80.3225 19.2134241,80.63125 L0.226040283,79.241875 L0.226040283,79.241875 Z" id="Stroke-57" stroke="#FFFFFF" stroke-width="0.5"></path>
                    <g id="Group-61" transform="translate(1.189686, 69.559000)">
                        <mask id="mask-34" fill="white">
                            <use xlink:href="#path-33"></use>
                        </mask>
                        <g id="Clip-60"></g>
                        <path d="M0.035690571,1.52475 C0.107071713,1.132875 0.178452855,0.752875 0.249833997,0.361 L18.9635901,3.816625 C18.9041058,4.125375 18.8446215,4.42225 18.7970341,4.731 L0.035690571,1.52475 L0.035690571,1.52475 Z" id="Fill-59" fill="#000000" mask="url(#mask-34)"></path>
                    </g>
                    <path d="M1.22537627,71.08375 C1.29675741,70.691875 1.36813856,70.311875 1.4395197,69.92 L20.1532758,73.375625 C20.0937915,73.684375 20.0343072,73.98125 19.9867198,74.29 L1.22537627,71.08375 L1.22537627,71.08375 Z" id="Stroke-62" stroke="#FFFFFF" stroke-width="0.5"></path>
                    <g id="Group-66" transform="translate(2.379371, 61.750000)">
                        <mask id="mask-36" fill="white">
                            <use xlink:href="#path-35"></use>
                        </mask>
                        <g id="Clip-65"></g>
                        <path d="M0.618636565,1.318125 C0.725708278,0.938125 0.832779991,0.54625 0.939851704,0.16625 L19.2372178,5.403125 L18.9873838,6.29375 L0.618636565,1.318125 L0.618636565,1.318125 Z" id="Fill-64" fill="#000000" mask="url(#mask-36)"></path>
                    </g>
                    <path d="M2.99800797,63.068125 C3.10507968,62.688125 3.21215139,62.29625 3.31922311,61.91625 L21.6165892,67.153125 L21.3667552,68.04375 L2.99800797,63.068125 L2.99800797,63.068125 Z" id="Stroke-67" stroke="#FFFFFF" stroke-width="0.5"></path>
                    <g id="Group-71" transform="translate(5.444002, 54.121500)">
                        <mask id="mask-38" fill="white">
                            <use xlink:href="#path-37"></use>
                        </mask>
                        <g id="Clip-70"></g>
                        <path d="M0.0999335989,1.121 C0.242695883,0.752875 0.385458167,0.38475 0.528220452,0.016625 L18.2307437,6.98725 C18.1117751,7.27225 18.0047034,7.55725 17.8976317,7.84225 L0.0999335989,1.121 L0.0999335989,1.121 Z" id="Fill-69" fill="#000000" mask="url(#mask-38)"></path>
                    </g>
                    <g id="Group-74" transform="translate(5.444002, 54.121500)">
                        <mask id="mask-40" fill="white">
                            <use xlink:href="#path-39"></use>
                        </mask>
                        <g id="Clip-73"></g>
                        <path d="M0.0999335989,1.121 C0.242695883,0.752875 0.385458167,0.38475 0.528220452,0.016625 L18.2307437,6.98725 C18.1117751,7.27225 18.0047034,7.55725 17.8976317,7.84225 L0.0999335989,1.121 L0.0999335989,1.121 Z" id="Stroke-72" stroke="#FFFFFF" stroke-width="0.5" mask="url(#mask-40)"></path>
                    </g>
                    <g id="Group-77" transform="translate(8.327800, 46.312500)">
                        <mask id="mask-42" fill="white">
                            <use xlink:href="#path-41"></use>
                        </mask>
                        <g id="Clip-76"></g>
                        <path d="M0.499667995,1.389375 C0.67812085,1.033125 0.856573705,0.68875 1.03502656,0.3325 L17.9880478,8.965625 C17.8452855,9.23875 17.7025232,9.52375 17.5716578,9.796875 L0.499667995,1.389375 L0.499667995,1.389375 Z" id="Fill-75" fill="#000000" mask="url(#mask-42)"></path>
                    </g>
                    <path d="M8.82746791,47.701875 C9.00592076,47.345625 9.18437362,47.00125 9.36282647,46.645 L26.3158477,55.278125 C26.1730854,55.55125 26.0303232,55.83625 25.8994577,56.109375 L8.82746791,47.701875 L8.82746791,47.701875 Z" id="Stroke-78" stroke="#FFFFFF" stroke-width="0.5"></path>
                    <g id="Group-82" transform="translate(12.582116, 39.187500)">
                        <mask id="mask-44" fill="white">
                            <use xlink:href="#path-43"></use>
                        </mask>
                        <g id="Clip-81"></g>
                        <path d="M0.230799026,1.33 C0.444942452,0.9975 0.647189022,0.653125 0.861332448,0.320625 L16.9101926,10.545 C16.7436366,10.80625 16.5889774,11.0675 16.4224214,11.32875 L0.230799026,1.33 L0.230799026,1.33 Z" id="Fill-80" fill="#000000" mask="url(#mask-44)"></path>
                    </g>
                    <path d="M12.812915,40.5175 C13.0270584,40.185 13.229305,39.840625 13.4434484,39.508125 L29.4923085,49.7325 C29.3257525,49.99375 29.1710934,50.255 29.0045374,50.51625 L12.812915,40.5175 L12.812915,40.5175 Z" id="Stroke-83" stroke="#FFFFFF" stroke-width="0.5"></path>
                    <g id="Group-87" transform="translate(17.340859, 32.746500)">
                        <mask id="mask-46" fill="white">
                            <use xlink:href="#path-45"></use>
                        </mask>
                        <g id="Clip-86"></g>
                        <path d="M0.13562417,0.990375 C0.37356131,0.66975 0.611498451,0.361 0.861332448,0.05225 L15.8513723,11.761 C15.6610226,11.9985 15.4825697,12.247875 15.29222,12.49725 L0.13562417,0.990375 L0.13562417,0.990375 Z" id="Fill-85" fill="#000000" mask="url(#mask-46)"></path>
                    </g>
                    <g id="Group-90" transform="translate(17.340859, 32.746500)">
                        <mask id="mask-48" fill="white">
                            <use xlink:href="#path-47"></use>
                        </mask>
                        <g id="Clip-89"></g>
                        <path d="M0.13562417,0.990375 C0.37356131,0.66975 0.611498451,0.361 0.861332448,0.05225 L15.8513723,11.761 C15.6610226,11.9985 15.4825697,12.247875 15.29222,12.49725 L0.13562417,0.990375 L0.13562417,0.990375 Z" id="Stroke-88" stroke="#FFFFFF" stroke-width="0.5" mask="url(#mask-48)"></path>
                    </g>
                    <g id="Group-93" transform="translate(22.604028, 26.125000)">
                        <mask id="mask-50" fill="white">
                            <use xlink:href="#path-49"></use>
                        </mask>
                        <g id="Clip-92"></g>
                        <path d="M0.166555998,1.318125 C0.44018371,1.033125 0.713811421,0.73625 0.987439132,0.45125 L14.7758964,13.549375 C14.561753,13.775 14.3595064,14.000625 14.145363,14.22625 L0.166555998,1.318125 L0.166555998,1.318125 Z" id="Fill-91" fill="#000000" mask="url(#mask-50)"></path>
                    </g>
                    <g id="Group-96" transform="translate(22.604028, 26.125000)">
                        <mask id="mask-52" fill="white">
                            <use xlink:href="#path-51"></use>
                        </mask>
                        <g id="Clip-95"></g>
                        <path d="M0.166555998,1.318125 C0.44018371,1.033125 0.713811421,0.73625 0.987439132,0.45125 L14.7758964,13.549375 C14.561753,13.775 14.3595064,14.000625 14.145363,14.22625 L0.166555998,1.318125 L0.166555998,1.318125 Z" id="Stroke-94" stroke="#FFFFFF" stroke-width="0.5" mask="url(#mask-52)"></path>
                    </g>
                    <g id="Group-99" transform="translate(28.552457, 20.871500)">
                        <mask id="mask-54" fill="white">
                            <use xlink:href="#path-53"></use>
                        </mask>
                        <g id="Clip-98"></g>
                        <path d="M0.0951748561,0.81225 L0.987439132,0.0285 L13.4553453,14.385375 C13.2174081,14.58725 12.9913679,14.789125 12.7653276,14.991 L0.0951748561,0.81225 L0.0951748561,0.81225 Z" id="Fill-97" fill="#000000" mask="url(#mask-54)"></path>
                    </g>
                    <path d="M28.6476317,21.68375 L29.539896,20.9 L42.0078021,35.256875 C41.769865,35.45875 41.5438247,35.660625 41.3177844,35.8625 L28.6476317,21.68375 L28.6476317,21.68375 Z" id="Stroke-100" stroke="#FFFFFF" stroke-width="0.5"></path>
                    <g id="Group-104" transform="translate(34.500885, 15.437500)">
                        <mask id="mask-56" fill="white">
                            <use xlink:href="#path-55"></use>
                        </mask>
                        <g id="Clip-103"></g>
                        <path d="M0.547255423,1.080625 C0.868470562,0.843125 1.1896857,0.605625 1.51090084,0.38 L12.5511842,15.865 C12.3013502,16.043125 12.0396193,16.233125 11.7897853,16.41125 L0.547255423,1.080625 L0.547255423,1.080625 Z" id="Fill-102" fill="#000000" mask="url(#mask-56)"></path>
                    </g>
                    <g id="Group-107" transform="translate(34.500885, 15.437500)">
                        <mask id="mask-58" fill="white">
                            <use xlink:href="#path-57"></use>
                        </mask>
                        <g id="Clip-106"></g>
                        <path d="M0.547255423,1.080625 C0.868470562,0.843125 1.1896857,0.605625 1.51090084,0.38 L12.5511842,15.865 C12.3013502,16.043125 12.0396193,16.233125 11.7897853,16.41125 L0.547255423,1.080625 L0.547255423,1.080625 Z" id="Stroke-105" stroke="#FFFFFF" stroke-width="0.5" mask="url(#mask-58)"></path>
                    </g>
                    <g id="Group-110" transform="translate(41.639000, 11.371500)">
                        <mask id="mask-60" fill="white">
                            <use xlink:href="#path-59"></use>
                        </mask>
                        <g id="Clip-109"></g>
                        <path d="M0.285524568,0.610375 C0.630533422,0.4085 0.963645418,0.2185 1.30865427,0.016625 L10.8023462,16.48725 C10.5406153,16.641625 10.2669876,16.796 10.0052568,16.950375 L0.285524568,0.610375 L0.285524568,0.610375 Z" id="Fill-108" fill="#000000" mask="url(#mask-60)"></path>
                    </g>
                    <g id="Group-113" transform="translate(41.639000, 11.371500)">
                        <mask id="mask-62" fill="white">
                            <use xlink:href="#path-61"></use>
                        </mask>
                        <g id="Clip-112"></g>
                        <path d="M0.285524568,0.610375 C0.630533422,0.4085 0.963645418,0.2185 1.30865427,0.016625 L10.8023462,16.48725 C10.5406153,16.641625 10.2669876,16.796 10.0052568,16.950375 L0.285524568,0.610375 L0.285524568,0.610375 Z" id="Stroke-111" stroke="#FFFFFF" stroke-width="0.5" mask="url(#mask-62)"></path>
                    </g>
                    <g id="Group-116" transform="translate(48.777114, 7.125000)">
                        <mask id="mask-64" fill="white">
                            <use xlink:href="#path-63"></use>
                        </mask>
                        <g id="Clip-115"></g>
                        <path d="M0.416389996,1.009375 C0.773295706,0.843125 1.14209827,0.676875 1.49900398,0.510625 L9.36282647,17.8125 C9.0773019,17.943125 8.79177734,18.07375 8.51814962,18.204375 L0.416389996,1.009375 L0.416389996,1.009375 Z" id="Fill-114" fill="#000000" mask="url(#mask-64)"></path>
                    </g>
                    <g id="Group-119" transform="translate(48.777114, 7.125000)">
                        <mask id="mask-66" fill="white">
                            <use xlink:href="#path-65"></use>
                        </mask>
                        <g id="Clip-118"></g>
                        <path d="M0.416389996,1.009375 C0.773295706,0.843125 1.14209827,0.676875 1.49900398,0.510625 L9.36282647,17.8125 C9.0773019,17.943125 8.79177734,18.07375 8.51814962,18.204375 L0.416389996,1.009375 L0.416389996,1.009375 Z" id="Stroke-117" stroke="#FFFFFF" stroke-width="0.5" mask="url(#mask-66)"></path>
                    </g>
                    <g id="Group-122" transform="translate(56.600487, 4.246500)">
                        <mask id="mask-68" fill="white">
                            <use xlink:href="#path-67"></use>
                        </mask>
                        <g id="Clip-121"></g>
                        <path d="M0.207005312,0.752875 C0.57580788,0.62225 0.944610447,0.491625 1.32530987,0.361 L7.48788181,18.33975 C7.19046038,18.43475 6.90493581,18.52975 6.61941124,18.636625 L0.207005312,0.752875 L0.207005312,0.752875 Z" id="Fill-120" fill="#000000" mask="url(#mask-68)"></path>
                    </g>
                    <g id="Group-125" transform="translate(56.600487, 4.246500)">
                        <mask id="mask-70" fill="white">
                            <use xlink:href="#path-69"></use>
                        </mask>
                        <g id="Clip-124"></g>
                        <path d="M0.207005312,0.752875 C0.57580788,0.62225 0.944610447,0.491625 1.32530987,0.361 L7.48788181,18.33975 C7.19046038,18.43475 6.90493581,18.52975 6.61941124,18.636625 L0.207005312,0.752875 L0.207005312,0.752875 Z" id="Stroke-123" stroke="#FFFFFF" stroke-width="0.5" mask="url(#mask-70)"></path>
                    </g>
                    <g id="Group-128" transform="translate(64.243028, 1.871500)">
                        <mask id="mask-72" fill="white">
                            <use xlink:href="#path-71"></use>
                        </mask>
                        <g id="Clip-127"></g>
                        <path d="M0.44018371,0.729125 C0.820883134,0.634125 1.21347942,0.539125 1.59417884,0.444125 L5.99601594,18.9335 C5.69859451,19.00475 5.40117309,19.076 5.10375166,19.14725 L0.44018371,0.729125 L0.44018371,0.729125 Z" id="Fill-126" fill="#000000" mask="url(#mask-72)"></path>
                    </g>
                    <g id="Group-131" transform="translate(64.243028, 1.871500)">
                        <mask id="mask-74" fill="white">
                            <use xlink:href="#path-73"></use>
                        </mask>
                        <g id="Clip-130"></g>
                        <path d="M0.44018371,0.729125 C0.820883134,0.634125 1.21347942,0.539125 1.59417884,0.444125 L5.99601594,18.9335 C5.69859451,19.00475 5.40117309,19.076 5.10375166,19.14725 L0.44018371,0.729125 L0.44018371,0.729125 Z" id="Stroke-129" stroke="#FFFFFF" stroke-width="0.5" mask="url(#mask-74)"></path>
                    </g>
                    <g id="Group-134" transform="translate(72.570828, 0.684000)">
                        <mask id="mask-76" fill="white">
                            <use xlink:href="#path-75"></use>
                        </mask>
                        <g id="Clip-133"></g>
                        <path d="M0.178452855,0.28975 C0.571049137,0.230375 0.963645418,0.182875 1.3562417,0.1235 L3.96165339,18.945375 C3.6523351,18.992875 3.35491368,19.0285 3.0455954,19.076 L0.178452855,0.28975 L0.178452855,0.28975 Z" id="Fill-132" fill="#000000" mask="url(#mask-76)"></path>
                    </g>
                    <g id="Group-137" transform="translate(72.570828, 0.684000)">
                        <mask id="mask-78" fill="white">
                            <use xlink:href="#path-77"></use>
                        </mask>
                        <g id="Clip-136"></g>
                        <path d="M0.178452855,0.28975 C0.571049137,0.230375 0.963645418,0.182875 1.3562417,0.1235 L3.96165339,18.945375 C3.6523351,18.992875 3.35491368,19.0285 3.0455954,19.076 L0.178452855,0.28975 L0.178452855,0.28975 Z" id="Stroke-135" stroke="#FFFFFF" stroke-width="0.5" mask="url(#mask-78)"></path>
                    </g>
                    <g id="Group-140" transform="translate(80.898628, 0.000000)">
                        <mask id="mask-80" fill="white">
                            <use xlink:href="#path-79"></use>
                        </mask>
                        <g id="Clip-139"></g>
                        <path d="M0.0475874281,0.130625 C0.44018371,0.106875 0.844676848,0.083125 1.23727313,0.07125 L2.02246569,19.059375 C1.71314741,19.07125 1.40382913,19.083125 1.09451085,19.095 L0.0475874281,0.130625 L0.0475874281,0.130625 Z" id="Fill-138" fill="#000000" mask="url(#mask-80)"></path>
                    </g>
                    <path d="M80.9462151,0.130625 C81.3388114,0.106875 81.7433046,0.083125 82.1359008,0.07125 L82.9210934,19.059375 C82.6117751,19.07125 82.3024568,19.083125 81.9931386,19.095 L80.9462151,0.130625 L80.9462151,0.130625 Z" id="Stroke-141" stroke="#FFFFFF" stroke-width="0.5"></path>
                    <g id="Group-145" transform="translate(88.036742, 0.000000)">
                        <mask id="mask-82" fill="white">
                            <use xlink:href="#path-81"></use>
                        </mask>
                        <g id="Clip-144"></g>
                        <path d="M1.14209827,0.07125 C1.53469456,0.083125 1.93918769,0.106875 2.33178398,0.130625 L1.28486056,19.095 C0.975542275,19.083125 0.666223993,19.07125 0.35690571,19.059375 L1.14209827,0.07125 L1.14209827,0.07125 Z" id="Fill-143" fill="#000000" mask="url(#mask-82)"></path>
                    </g>
                    <g id="Group-148" transform="translate(88.036742, 0.000000)">
                        <mask id="mask-84" fill="white">
                            <use xlink:href="#path-83"></use>
                        </mask>
                        <g id="Clip-147"></g>
                        <path d="M1.14209827,0.07125 C1.53469456,0.083125 1.93918769,0.106875 2.33178398,0.130625 L1.28486056,19.095 C0.975542275,19.083125 0.666223993,19.07125 0.35690571,19.059375 L1.14209827,0.07125 L1.14209827,0.07125 Z" id="Stroke-146" stroke="#FFFFFF" stroke-width="0.5" mask="url(#mask-84)"></path>
                    </g>
                    <g id="Group-151" transform="translate(94.670429, 0.684000)">
                        <mask id="mask-86" fill="white">
                            <use xlink:href="#path-85"></use>
                        </mask>
                        <g id="Clip-150"></g>
                        <path d="M2.71724214,0.1235 C3.10983842,0.182875 3.50243471,0.230375 3.89503099,0.28975 L1.02788845,19.076 C0.718570164,19.0285 0.421148738,18.992875 0.111830456,18.945375 L2.71724214,0.1235 L2.71724214,0.1235 Z" id="Fill-149" fill="#000000" mask="url(#mask-86)"></path>
                    </g>
                    <g id="Group-154" transform="translate(94.670429, 0.684000)">
                        <mask id="mask-88" fill="white">
                            <use xlink:href="#path-87"></use>
                        </mask>
                        <g id="Clip-153"></g>
                        <path d="M2.71724214,0.1235 C3.10983842,0.182875 3.50243471,0.230375 3.89503099,0.28975 L1.02788845,19.076 C0.718570164,19.0285 0.421148738,18.992875 0.111830456,18.945375 L2.71724214,0.1235 L2.71724214,0.1235 Z" id="Stroke-152" stroke="#FFFFFF" stroke-width="0.5" mask="url(#mask-88)"></path>
                    </g>
                    <g id="Group-157" transform="translate(100.618858, 1.871500)">
                        <mask id="mask-90" fill="white">
                            <use xlink:href="#path-89"></use>
                        </mask>
                        <g id="Clip-156"></g>
                        <path d="M4.85867641,0.444125 C5.23937583,0.539125 5.63197211,0.634125 6.01267154,0.729125 L1.34910359,19.14725 C1.05168216,19.076 0.754260735,19.00475 0.456839309,18.9335 L4.85867641,0.444125 L4.85867641,0.444125 Z" id="Fill-155" fill="#000000" mask="url(#mask-90)"></path>
                    </g>
                    <g id="Group-160" transform="translate(100.618858, 1.871500)">
                        <mask id="mask-92" fill="white">
                            <use xlink:href="#path-91"></use>
                        </mask>
                        <g id="Clip-159"></g>
                        <path d="M4.85867641,0.444125 C5.23937583,0.539125 5.63197211,0.634125 6.01267154,0.729125 L1.34910359,19.14725 L0.456839309,18.9335 L4.85867641,0.444125 L4.85867641,0.444125 Z" id="Stroke-158" stroke="#FFFFFF" stroke-width="0.5" mask="url(#mask-92)"></path>
                    </g>
                    <g id="Group-163" transform="translate(107.071713, 4.246500)">
                        <mask id="mask-94" fill="white">
                            <use xlink:href="#path-93"></use>
                        </mask>
                        <g id="Clip-162"></g>
                        <path d="M6.31723108,0.361 C6.6979305,0.491625 7.06673307,0.62225 7.43553564,0.752875 L1.0231297,18.636625 C0.737605135,18.52975 0.452080567,18.43475 0.154659141,18.33975 L6.31723108,0.361 L6.31723108,0.361 Z" id="Fill-161" fill="#000000" mask="url(#mask-94)"></path>
                    </g>
                    <path d="M113.388944,4.6075 C113.769644,4.738125 114.138446,4.86875 114.507249,4.999375 L108.094843,22.883125 C107.809318,22.77625 107.523794,22.68125 107.226372,22.58625 L113.388944,4.6075 L113.388944,4.6075 Z" id="Stroke-164" stroke="#FFFFFF" stroke-width="0.5"></path>
                    <g id="Group-168" transform="translate(113.020142, 7.125000)">
                        <mask id="mask-96" fill="white">
                            <use xlink:href="#path-95"></use>
                        </mask>
                        <g id="Clip-167"></g>
                        <path d="M8.01848163,0.510625 C8.37538734,0.676875 8.74418991,0.843125 9.10109562,1.009375 L0.999335989,18.204375 C0.725708278,18.07375 0.44018371,17.943125 0.154659141,17.8125 L8.01848163,0.510625 L8.01848163,0.510625 Z" id="Fill-166" fill="#000000" mask="url(#mask-96)"></path>
                    </g>
                    <g id="Group-171" transform="translate(113.020142, 7.125000)">
                        <mask id="mask-98" fill="white">
                            <use xlink:href="#path-97"></use>
                        </mask>
                        <g id="Clip-170"></g>
                        <path d="M8.01848163,0.510625 C8.37538734,0.676875 8.74418991,0.843125 9.10109562,1.009375 L0.999335989,18.204375 C0.725708278,18.07375 0.44018371,17.943125 0.154659141,17.8125 L8.01848163,0.510625 L8.01848163,0.510625 Z" id="Stroke-169" stroke="#FFFFFF" stroke-width="0.5" mask="url(#mask-98)"></path>
                    </g>
                    <g id="Group-174" transform="translate(118.464143, 11.371500)">
                        <mask id="mask-100" fill="white">
                            <use xlink:href="#path-99"></use>
                        </mask>
                        <g id="Clip-173"></g>
                        <path d="M9.90294378,0.016625 C10.2479526,0.2185 10.5810646,0.4085 10.9260735,0.610375 L1.2063413,16.950375 C0.944610447,16.796 0.670982736,16.641625 0.409251881,16.48725 L9.90294378,0.016625 L9.90294378,0.016625 Z" id="Fill-172" fill="#000000" mask="url(#mask-100)"></path>
                    </g>
                    <g id="Group-177" transform="translate(118.464143, 11.371500)">
                        <mask id="mask-102" fill="white">
                            <use xlink:href="#path-101"></use>
                        </mask>
                        <g id="Clip-176"></g>
                        <path d="M9.90294378,0.016625 C10.2479526,0.2185 10.5810646,0.4085 10.9260735,0.610375 L1.2063413,16.950375 C0.944610447,16.796 0.670982736,16.641625 0.409251881,16.48725 L9.90294378,0.016625 L9.90294378,0.016625 Z" id="Stroke-175" stroke="#FFFFFF" stroke-width="0.5" mask="url(#mask-102)"></path>
                    </g>
                    <g id="Group-180" transform="translate(123.727313, 15.437500)">
                        <mask id="mask-104" fill="white">
                            <use xlink:href="#path-103"></use>
                        </mask>
                        <g id="Clip-179"></g>
                        <path d="M11.5756419,0.38 C11.896857,0.605625 12.2180722,0.843125 12.5392873,1.080625 L1.29675741,16.41125 C1.04692342,16.233125 0.785192563,16.043125 0.535358566,15.865 L11.5756419,0.38 L11.5756419,0.38 Z" id="Fill-178" fill="#000000" mask="url(#mask-104)"></path>
                    </g>
                    <path d="M135.302955,15.8175 C135.62417,16.043125 135.945385,16.280625 136.2666,16.518125 L125.02407,31.84875 C124.774236,31.670625 124.512506,31.480625 124.262672,31.3025 L135.302955,15.8175 L135.302955,15.8175 Z" id="Stroke-181" stroke="#FFFFFF" stroke-width="0.5"></path>
                    <g id="Group-185" transform="translate(129.171315, 20.871500)">
                        <mask id="mask-106" fill="white">
                            <use xlink:href="#path-105"></use>
                        </mask>
                        <g id="Clip-184"></g>
                        <path d="M12.6035303,0.0285 L13.4957946,0.81225 L0.825641877,14.991 C0.599601594,14.789125 0.37356131,14.58725 0.13562417,14.385375 L12.6035303,0.0285 L12.6035303,0.0285 Z" id="Fill-183" fill="#000000" mask="url(#mask-106)"></path>
                    </g>
                    <path d="M141.774845,20.9 L142.667109,21.68375 L129.996957,35.8625 C129.770916,35.660625 129.544876,35.45875 129.306939,35.256875 L141.774845,20.9 L141.774845,20.9 Z" id="Stroke-186" stroke="#FFFFFF" stroke-width="0.5"></path>
                    <g id="Group-190" transform="translate(133.930058, 26.125000)">
                        <mask id="mask-108" fill="white">
                            <use xlink:href="#path-107"></use>
                        </mask>
                        <g id="Clip-189"></g>
                        <path d="M13.793216,0.45125 C14.0668437,0.73625 14.3404714,1.033125 14.6140992,1.318125 L0.635292165,14.22625 C0.421148738,14.000625 0.218902169,13.775 0.00475874281,13.549375 L13.793216,0.45125 L13.793216,0.45125 Z" id="Fill-188" fill="#000000" mask="url(#mask-108)"></path>
                    </g>
                    <g id="Group-193" transform="translate(133.930058, 26.125000)">
                        <mask id="mask-110" fill="white">
                            <use xlink:href="#path-109"></use>
                        </mask>
                        <g id="Clip-192"></g>
                        <path d="M13.793216,0.45125 C14.0668437,0.73625 14.3404714,1.033125 14.6140992,1.318125 L0.635292165,14.22625 C0.421148738,14.000625 0.218902169,13.775 0.00475874281,13.549375 L13.793216,0.45125 L13.793216,0.45125 Z" id="Stroke-191" stroke="#FFFFFF" stroke-width="0.5" mask="url(#mask-110)"></path>
                    </g>
                    <g id="Group-196" transform="translate(138.003541, 32.746500)">
                        <mask id="mask-112" fill="white">
                            <use xlink:href="#path-111"></use>
                        </mask>
                        <g id="Clip-195"></g>
                        <path d="M15.1090084,0.05225 C15.3588424,0.361 15.5967795,0.66975 15.8347167,0.990375 L0.67812085,12.49725 C0.487771138,12.247875 0.309318282,11.9985 0.11896857,11.761 L15.1090084,0.05225 L15.1090084,0.05225 Z" id="Fill-194" fill="#000000" mask="url(#mask-112)"></path>
                    </g>
                    <g id="Group-199" transform="translate(138.003541, 32.746500)">
                        <mask id="mask-114" fill="white">
                            <use xlink:href="#path-113"></use>
                        </mask>
                        <g id="Clip-198"></g>
                        <path d="M15.1090084,0.05225 C15.3588424,0.361 15.5967795,0.66975 15.8347167,0.990375 L0.67812085,12.49725 C0.487771138,12.247875 0.309318282,11.9985 0.11896857,11.761 L15.1090084,0.05225 L15.1090084,0.05225 Z" id="Stroke-197" stroke="#FFFFFF" stroke-width="0.5" mask="url(#mask-114)"></path>
                    </g>
                    <g id="Group-202" transform="translate(141.572598, 39.187500)">
                        <mask id="mask-116" fill="white">
                            <use xlink:href="#path-115"></use>
                        </mask>
                        <g id="Clip-201"></g>
                        <path d="M16.2986941,0.320625 C16.5128375,0.653125 16.7150841,0.9975 16.9292275,1.33 L0.737605135,11.32875 C0.571049137,11.0675 0.416389996,10.80625 0.249833997,10.545 L16.2986941,0.320625 L16.2986941,0.320625 Z" id="Fill-200" fill="#000000" mask="url(#mask-116)"></path>
                    </g>
                    <g id="Group-205" transform="translate(141.572598, 39.187500)">
                        <mask id="mask-118" fill="white">
                            <use xlink:href="#path-117"></use>
                        </mask>
                        <g id="Clip-204"></g>
                        <path d="M16.2986941,0.320625 C16.5128375,0.653125 16.7150841,0.9975 16.9292275,1.33 L0.737605135,11.32875 C0.571049137,11.0675 0.416389996,10.80625 0.249833997,10.545 L16.2986941,0.320625 L16.2986941,0.320625 Z" id="Stroke-203" stroke="#FFFFFF" stroke-width="0.5" mask="url(#mask-118)"></path>
                    </g>
                    <g id="Group-208" transform="translate(144.637229, 46.312500)">
                        <mask id="mask-120" fill="white">
                            <use xlink:href="#path-119"></use>
                        </mask>
                        <g id="Clip-207"></g>
                        <path d="M17.3146857,0.3325 C17.4931386,0.68875 17.6715914,1.033125 17.8500443,1.389375 L0.778054449,9.796875 C0.647189022,9.52375 0.504426737,9.23875 0.361664453,8.965625 L17.3146857,0.3325 L17.3146857,0.3325 Z" id="Fill-206" fill="#000000" mask="url(#mask-120)"></path>
                    </g>
                    <g id="Group-211" transform="translate(144.637229, 46.312500)">
                        <mask id="mask-122" fill="white">
                            <use xlink:href="#path-121"></use>
                        </mask>
                        <g id="Clip-210"></g>
                        <path d="M17.3146857,0.3325 C17.4931386,0.68875 17.6715914,1.033125 17.8500443,1.389375 L0.778054449,9.796875 C0.647189022,9.52375 0.504426737,9.23875 0.361664453,8.965625 L17.3146857,0.3325 L17.3146857,0.3325 Z" id="Stroke-209" stroke="#FFFFFF" stroke-width="0.5" mask="url(#mask-122)"></path>
                    </g>
                    <g id="Group-214" transform="translate(147.521027, 54.121500)">
                        <mask id="mask-124" fill="white">
                            <use xlink:href="#path-123"></use>
                        </mask>
                        <g id="Clip-213"></g>
                        <path d="M17.8214918,0.016625 C17.9642541,0.38475 18.1070164,0.752875 18.2497787,1.121 L0.452080567,7.84225 C0.345008853,7.55725 0.23793714,7.27225 0.11896857,6.98725 L17.8214918,0.016625 L17.8214918,0.016625 Z" id="Fill-212" fill="#000000" mask="url(#mask-124)"></path>
                    </g>
                    <g id="Group-217" transform="translate(147.521027, 54.121500)">
                        <mask id="mask-126" fill="white">
                            <use xlink:href="#path-125"></use>
                        </mask>
                        <g id="Clip-216"></g>
                        <path d="M17.8214918,0.016625 C17.9642541,0.38475 18.1070164,0.752875 18.2497787,1.121 L0.452080567,7.84225 C0.345008853,7.55725 0.23793714,7.27225 0.11896857,6.98725 L17.8214918,0.016625 L17.8214918,0.016625 Z" id="Stroke-215" stroke="#FFFFFF" stroke-width="0.5" mask="url(#mask-126)"></path>
                    </g>
                    <g id="Group-220" transform="translate(149.395972, 61.750000)">
                        <mask id="mask-128" fill="white">
                            <use xlink:href="#path-127"></use>
                        </mask>
                        <g id="Clip-219"></g>
                        <path d="M18.5995463,0.16625 C18.706618,0.54625 18.8136897,0.938125 18.9207614,1.318125 L0.552014166,6.29375 L0.302180168,5.403125 L18.5995463,0.16625 L18.5995463,0.16625 Z" id="Fill-218" fill="#000000" mask="url(#mask-128)"></path>
                    </g>
                    <path d="M167.995518,61.91625 C168.10259,62.29625 168.209661,62.688125 168.316733,63.068125 L149.947986,68.04375 L149.698152,67.153125 L167.995518,61.91625 L167.995518,61.91625 Z" id="Stroke-221" stroke="#FFFFFF" stroke-width="0.5"></path>
                    <g id="Group-225" transform="translate(151.090084, 69.559000)">
                        <mask id="mask-130" fill="white">
                            <use xlink:href="#path-129"></use>
                        </mask>
                        <g id="Clip-224"></g>
                        <path d="M18.7851372,0.361 C18.8565184,0.752875 18.9278995,1.132875 18.9992807,1.52475 L0.23793714,4.731 C0.190349712,4.42225 0.130865427,4.125375 0.0713811421,3.816625 L18.7851372,0.361 L18.7851372,0.361 Z" id="Fill-223" fill="#000000" mask="url(#mask-130)"></path>
                    </g>
                    <path d="M169.875221,69.92 C169.946602,70.311875 170.017984,70.691875 170.089365,71.08375 L151.328021,74.29 C151.280434,73.98125 151.22095,73.684375 151.161465,73.375625 L169.875221,69.92 L169.875221,69.92 Z" id="Stroke-226" stroke="#FFFFFF" stroke-width="0.5"></path>
                    <g id="Group-230" transform="translate(151.775343, 77.871500)">
                        <mask id="mask-132" fill="white">
                            <use xlink:href="#path-131"></use>
                        </mask>
                        <g id="Clip-229"></g>
                        <path d="M19.2181828,0.19475 C19.2538734,0.586625 19.289564,0.9785 19.3133577,1.370375 L0.325973882,2.75975 C0.302180168,2.451 0.278386454,2.154125 0.25459274,1.845375 L19.2181828,0.19475 L19.2181828,0.19475 Z" id="Fill-228" fill="#000000" mask="url(#mask-132)"></path>
                    </g>
                    <path d="M170.993526,78.06625 C171.029216,78.458125 171.064907,78.85 171.088701,79.241875 L152.101317,80.63125 C152.077523,80.3225 152.05373,80.025625 152.029936,79.716875 L170.993526,78.06625 L170.993526,78.06625 Z" id="Stroke-231" stroke="#FFFFFF" stroke-width="0.5"></path>
                    <g id="Group-235" transform="translate(151.775343, 85.500000)">
                        <mask id="mask-134" fill="white">
                            <use xlink:href="#path-133"></use>
                        </mask>
                        <g id="Clip-234"></g>
                        <path d="M19.539398,0.771875 C19.539398,1.16375 19.5275011,1.5675 19.5156042,1.959375 L0.49252988,1.531875 C0.504426737,1.223125 0.504426737,0.914375 0.504426737,0.605625 L19.539398,0.771875 L19.539398,0.771875 Z" id="Fill-233" fill="#000000" mask="url(#mask-134)"></path>
                    </g>
                    <g id="Group-238" transform="translate(151.775343, 85.500000)">
                        <mask id="mask-136" fill="white">
                            <use xlink:href="#path-135"></use>
                        </mask>
                        <g id="Clip-237"></g>
                        <path d="M19.539398,0.771875 C19.539398,1.16375 19.5275011,1.5675 19.5156042,1.959375 L0.49252988,1.531875 C0.504426737,1.223125 0.504426737,0.914375 0.504426737,0.605625 L19.539398,0.771875 L19.539398,0.771875 Z" id="Stroke-236" stroke="#FFFFFF" stroke-width="0.5" mask="url(#mask-136)"></path>
                    </g>
                    <g id="Group-241" transform="translate(151.775343, 92.121500)">
                        <mask id="mask-138" fill="white">
                            <use xlink:href="#path-137"></use>
                        </mask>
                        <g id="Clip-240"></g>
                        <path d="M19.0635237,2.356 C19.0159363,2.747875 18.9802457,3.151625 18.9326583,3.5435 L0.0285524568,1.28725 C0.0642430279,0.9785 0.0999335989,0.66975 0.13562417,0.361 L19.0635237,2.356 L19.0635237,2.356 Z" id="Fill-239" fill="#000000" mask="url(#mask-138)"></path>
                    </g>
                    <g id="Group-244" transform="translate(151.775343, 92.121500)">
                        <mask id="mask-140" fill="white">
                            <use xlink:href="#path-139"></use>
                        </mask>
                        <g id="Clip-243"></g>
                        <path d="M19.0635237,2.356 C19.0159363,2.747875 18.9802457,3.151625 18.9326583,3.5435 L0.0285524568,1.28725 C0.0642430279,0.9785 0.0999335989,0.66975 0.13562417,0.361 L19.0635237,2.356 L19.0635237,2.356 Z" id="Stroke-242" stroke="#FFFFFF" stroke-width="0.5" mask="url(#mask-140)"></path>
                    </g>
                    <g id="Group-247" transform="translate(150.585657, 98.562500)">
                        <mask id="mask-142" fill="white">
                            <use xlink:href="#path-141"></use>
                        </mask>
                        <g id="Clip-246"></g>
                        <path d="M18.9921425,4.0375 C18.9088645,4.429375 18.8374834,4.809375 18.7542054,5.20125 L0.159417884,1.151875 C0.230799026,0.855 0.290283311,0.534375 0.349767596,0.2375 L18.9921425,4.0375 L18.9921425,4.0375 Z" id="Fill-245" fill="#000000" mask="url(#mask-142)"></path>
                    </g>
                    <g id="Group-250" transform="translate(150.585657, 98.562500)">
                        <mask id="mask-144" fill="white">
                            <use xlink:href="#path-143"></use>
                        </mask>
                        <g id="Clip-249"></g>
                        <path d="M18.9921425,4.0375 C18.9088645,4.429375 18.8374834,4.809375 18.7542054,5.20125 L0.159417884,1.151875 C0.230799026,0.855 0.290283311,0.534375 0.349767596,0.2375 L18.9921425,4.0375 L18.9921425,4.0375 Z" id="Stroke-248" stroke="#FFFFFF" stroke-width="0.5" mask="url(#mask-144)"></path>
                    </g>
                    <g id="Group-253" transform="translate(148.710713, 104.500000)">
                        <mask id="mask-146" fill="white">
                            <use xlink:href="#path-145"></use>
                        </mask>
                        <g id="Clip-252"></g>
                        <path d="M18.8446215,6.068125 C18.7256529,6.448125 18.6066844,6.828125 18.4877158,7.208125 L0.368802568,1.3775 C0.463977424,1.080625 0.547255423,0.795625 0.642430279,0.49875 L18.8446215,6.068125 L18.8446215,6.068125 Z" id="Fill-251" fill="#000000" mask="url(#mask-146)"></path>
                    </g>
                    <path d="M167.555334,110.568125 C167.436366,110.948125 167.317397,111.328125 167.198429,111.708125 L149.079515,105.8775 C149.17469,105.580625 149.257968,105.295625 149.353143,104.99875 L167.555334,110.568125 L167.555334,110.568125 Z" id="Stroke-254" stroke="#FFFFFF" stroke-width="0.5"></path>
                    <g id="Group-258" transform="translate(146.331341, 110.437500)">
                        <mask id="mask-148" fill="white">
                            <use xlink:href="#path-147"></use>
                        </mask>
                        <g id="Clip-257"></g>
                        <path d="M18.4282315,7.86125 C18.2735724,8.229375 18.1189132,8.5975 17.9642541,8.965625 L0.487771138,1.425 C0.606739708,1.14 0.725708278,0.866875 0.844676848,0.581875 L18.4282315,7.86125 L18.4282315,7.86125 Z" id="Fill-256" fill="#000000" mask="url(#mask-148)"></path>
                    </g>
                    <g id="Group-261" transform="translate(146.331341, 110.437500)">
                        <mask id="mask-150" fill="white">
                            <use xlink:href="#path-149"></use>
                        </mask>
                        <g id="Clip-260"></g>
                        <path d="M18.4282315,7.86125 C18.2735724,8.229375 18.1189132,8.5975 17.9642541,8.965625 L0.487771138,1.425 C0.606739708,1.14 0.725708278,0.866875 0.844676848,0.581875 L18.4282315,7.86125 L18.4282315,7.86125 Z" id="Stroke-259" stroke="#FFFFFF" stroke-width="0.5" mask="url(#mask-150)"></path>
                    </g>
                    <g id="Group-264" transform="translate(143.951970, 116.375000)">
                        <mask id="mask-152" fill="white">
                            <use xlink:href="#path-151"></use>
                        </mask>
                        <g id="Clip-263"></g>
                        <path d="M17.2861332,9.3575 C17.0957835,9.701875 16.9054338,10.058125 16.7150841,10.4025 L0.0475874281,1.235 C0.202246569,0.961875 0.345008853,0.68875 0.487771138,0.415625 L17.2861332,9.3575 L17.2861332,9.3575 Z" id="Fill-262" fill="#000000" mask="url(#mask-152)"></path>
                    </g>
                    <g id="Group-267" transform="translate(143.951970, 116.375000)">
                        <mask id="mask-154" fill="white">
                            <use xlink:href="#path-153"></use>
                        </mask>
                        <g id="Clip-266"></g>
                        <path d="M17.2861332,9.3575 C17.0957835,9.701875 16.9054338,10.058125 16.7150841,10.4025 L0.0475874281,1.235 C0.202246569,0.961875 0.345008853,0.68875 0.487771138,0.415625 L17.2861332,9.3575 L17.2861332,9.3575 Z" id="Stroke-265" stroke="#FFFFFF" stroke-width="0.5" mask="url(#mask-154)"></path>
                    </g>
                    <g id="Group-270" transform="translate(140.382913, 122.312500)">
                        <mask id="mask-156" fill="white">
                            <use xlink:href="#path-155"></use>
                        </mask>
                        <g id="Clip-269"></g>
                        <path d="M16.6318061,10.47375 C16.4176627,10.80625 16.1916224,11.126875 15.9655821,11.459375 L0.261730854,0.73625 C0.44018371,0.486875 0.606739708,0.225625 0.773295706,-0.035625 L16.6318061,10.47375 L16.6318061,10.47375 Z" id="Fill-268" fill="#000000" mask="url(#mask-156)"></path>
                    </g>
                    <path d="M157.014719,132.78625 C156.800575,133.11875 156.574535,133.439375 156.348495,133.771875 L140.644644,123.04875 C140.823097,122.799375 140.989653,122.538125 141.156208,122.276875 L157.014719,132.78625 L157.014719,132.78625 Z" id="Stroke-271" stroke="#FFFFFF" stroke-width="0.5"></path>
                    <g id="Group-275" transform="translate(136.813856, 127.062500)">
                        <mask id="mask-158" fill="white">
                            <use xlink:href="#path-157"></use>
                        </mask>
                        <g id="Clip-274"></g>
                        <path d="M15.3231518,12.35 C15.0733178,12.65875 14.8234838,12.955625 14.5736498,13.264375 L-0.035690571,1.080625 C0.166555998,0.843125 0.35690571,0.605625 0.547255423,0.368125 L15.3231518,12.35 L15.3231518,12.35 Z" id="Fill-273" fill="#000000" mask="url(#mask-158)"></path>
                    </g>
                    <g id="Group-278" transform="translate(136.309429, 127.062500)">
                        <mask id="mask-160" fill="white">
                            <use xlink:href="#path-159"></use>
                        </mask>
                        <g id="Clip-277"></g>
                        <path d="M15.8275786,12.35 C15.5777446,12.65875 15.3279106,12.955625 15.0780766,13.264375 L0.468736166,1.080625 C0.670982736,0.843125 0.861332448,0.605625 1.05168216,0.368125 L15.8275786,12.35 L15.8275786,12.35 Z" id="Stroke-276" stroke="#FFFFFF" stroke-width="0.5" mask="url(#mask-160)"></path>
                    </g>
                    <g id="Group-281" transform="translate(132.055113, 131.812500)">
                        <mask id="mask-162" fill="white">
                            <use xlink:href="#path-161"></use>
                        </mask>
                        <g id="Clip-280"></g>
                        <path d="M14.5855467,13.7275 C14.311919,14.0125 14.0382913,14.285625 13.7527667,14.55875 L0.380699425,1.033125 L1.03502656,0.38 L14.5855467,13.7275 L14.5855467,13.7275 Z" id="Fill-279" fill="#000000" mask="url(#mask-162)"></path>
                    </g>
                    <path d="M146.64066,145.54 C146.367032,145.825 146.093404,146.098125 145.80788,146.37125 L132.435812,132.845625 L133.090139,132.1925 L146.64066,145.54 L146.64066,145.54 Z" id="Stroke-282" stroke="#FFFFFF" stroke-width="0.5"></path>
                </g>
                <g class="gauge-rotater">
                <path d="M86.5,129 C110.524387,129 130,109.524387 130,85.5 C130,61.4756134 110.524387,42 86.5,42 C62.4756134,42 43,61.4756134 43,85.5 C43,109.524387 62.4756134,129 86.5,129 Z" id="Oval-3" fill="#93C83F"></path>
                <path d="M129.489817,42.9847758 C129.975373,41.9932976 130.765348,41.9988802 131.248169,42.9847758 L145.524072,72.1353988 C146.009628,73.1268771 145.512083,73.930629 144.397219,73.930629 L116.340767,73.930629 C115.232868,73.930629 114.731093,73.1212944 115.213914,72.1353988 L129.489817,42.9847758 Z" id="caret-copy-2" fill="#93C83F" transform="translate(130.370094, 58.086944) scale(-1, 1) rotate(-56.000000) translate(-130.370094, -58.086944) "></path>
                </g>
            </g>
        </g>
    </g>
</svg>